<svg id="Capa_1" data-name="Capa 1" xmlns="http://www.w3.org/2000/svg" viewBox="0 0 210 100"><defs><style>.cls-1{fill:#f00030;}</style></defs><title>ilustracion-monserrate</title><path d="M161.2,83.51a7.11,7.11,0,0,1-7.1-7.1h2.71a4.39,4.39,0,1,0,8.77,0h2.72A7.12,7.12,0,0,1,161.2,83.51Z"/><path d="M161.2,92a15.74,15.74,0,0,1-15.73-15.7h2.71a13,13,0,0,0,26,0h2.71A15.75,15.75,0,0,1,161.2,92Z"/><path d="M38.3,83.51a7.11,7.11,0,0,1-7.1-7.1h2.72a4.38,4.38,0,0,0,8.76,0H45.4A7.12,7.12,0,0,1,38.3,83.51Z"/><path d="M38.3,92a15.74,15.74,0,0,1-15.73-15.7h2.71a13,13,0,0,0,26,0H54A15.75,15.75,0,0,1,38.3,92Z"/><path class="cls-1" d="M12.22,76.08V31.61A23.7,23.7,0,0,1,35.84,8H169.58a19.22,19.22,0,0,1,19.17,19.17V76.08H43.84"/><rect x="162.53" y="39.74" width="41.27" height="2.71"/><polygon points="163.81 76.52 161.09 76.52 161.09 27.31 136.39 27.31 136.39 76.52 133.68 76.52 133.68 24.6 163.81 24.6 163.81 76.52"/><rect x="147.47" y="26.62" width="2.71" height="36.11"/><path d="M189.18,68.18V65.47a4.16,4.16,0,1,0,.32-8.32h-.32V54.44a6.87,6.87,0,1,1,.41,13.74Z"/><polygon points="126.78 42.36 6.2 42.36 6.2 39.65 124.06 39.65 124.06 27.23 47.18 27.23 47.18 24.51 126.78 24.51 126.78 42.36"/><rect x="109.3" y="25.78" width="2.71" height="15.1"/><rect x="93.72" y="26.29" width="2.71" height="15.64"/><rect x="78.48" y="25.54" width="2.71" height="16.38"/><rect x="62.64" y="24.6" width="2.71" height="16.38"/></svg>