<svg id="Capa_1" data-name="Capa 1" xmlns="http://www.w3.org/2000/svg" viewBox="0 0 1080 820"><defs><style>.cls-1{fill:#c7fcec;}.cls-2{fill:#0093a0;}.cls-3{fill:#afa4da;}.cls-4{fill:#009166;}.cls-5{fill:#f9f871;}.cls-6{fill:#ff559b;}.cls-7{fill:#ff8c6a;}.cls-8{fill:#f4ecff;}.cls-9{fill:#6062ff;}.cls-10{fill:#e2ceff;}.cls-11{stroke:#000;stroke-miterlimit:10;stroke-width:1.5px;}</style></defs><title>ilustracion-monserrate</title><path class="cls-1" d="M1.47,424.48C3.93,411.72,21,399,39.12,403.91c15.84,4.31,30.22,19.31,44.84,13,8-3.45,9.64-11.44,14.09-17.54,13.5-18.51,50.34-17.54,70.3-32.31,8.69-6.44,13.89-15.71,24.42-20.3,14.83-6.46,34.76-.53,45.17,9.76S251.54,380.16,254,393s4.83,26.18,14,37.12c1.49,1.78,3.48,3.63,6.25,3.85s5.28-1.33,7.2-2.9c12.68-10.29,22.31-27.28,40.79-25.92,14.43,1.05,22.08,13.13,27,23.49l13.28,28.16c2.69,5.69,5.65,11.68,11.84,15.49,12.45,7.64,32.39,2.35,41.65-7.56s10.86-22.66,12.54-34.74,4.21-24.91,14.74-34.07a28.29,28.29,0,0,1,16.43-7.13c18.66-1.22,32.31,18.61,50.6,15.53,15.53-2.61,18.19-18.59,29-27.44,13.91-11.38,39.22-9.24,55.46-18.69,12.27-7.14,17.82-20.09,31.61-25.42,22.09-8.55,47.56,8.71,54.86,26.69s5.44,38.1,17.07,54.71a12.5,12.5,0,0,0,4.29,4.16c5.75,3,13.9-.48,17.54-5s5-10.1,9.35-14.27c9.58-9.17,29.86-7.32,41.13.66s15.84,19.87,19.92,31.15S799.17,454,810.4,462a14.66,14.66,0,0,0,7.77,3.13c7.05.33,10.8-6.08,12.51-11.28l16.53-50.06c4.41-13.37,10.91-28.62,27.84-33.61,23.19-6.84,46.74,11.33,53.59,29.48S934,438,946.43,454.4a10.27,10.27,0,0,0,3.54,3.24c8.43,4.19,14.29-7,18.83-13.85,9.54-14.35,39.56-13.1,54.26-1.52s18.19,28.67,21,44.61c-4-84.82,25.93-172.11-6.53-253.33-6.26-15.66-21.67-33.83-42.76-30.47-9,1.43-16.1,6.7-21.54,12.33a65.37,65.37,0,0,0-17,30.1c-2.1,8.88-5.65,20.82-17.55,20.86-9.25,0-14.63-7.81-17.23-14.55-10.87-28.13-11.42-58.24-24.2-85.91s-43.7-54.15-82.31-53.39c-41.84.82-70.79,32-85.86,61.66a229.92,229.92,0,0,0-23.15,73.33c-.65,4.86-1.24,10-4.78,14-7,8-23.26,8.68-34.06,3.63s-17.14-14.1-21.9-23c-17.74-33.29-20.77-71.13-45.82-101.6-12.17-14.79-31.92-28.07-54.89-27.57-18,.39-34,9.27-45.2,20-32,30.72-31,73.71-47.37,110.87-9.13,20.72-24,40-43.39,56.14-16,13.32-39.39,25.27-62,19.84-26.36-6.32-34.35-31-40.4-51.43-7.48-25.33-19.29-51.22-44.33-68.9s-66.45-24.24-93.77-8.62C149.53,201.39,141.29,219,134,235.6l-27.73,63.17c-6.27,14.28-12.83,29-25.76,40.37C69.94,348.48,55.77,355,43.67,363.22,20.79,378.75,4.72,401.22,1.47,424.48Z"/><path d="M95.07,657.25l.53-7.46-2.71-.19-.53,7.51v.1a6,6,0,0,0,5.39,5.93v4.61h2.72v-4.59h3.76v-2.7H98.32A3.25,3.25,0,0,1,95.07,657.25Z"/><rect x="107.38" y="656.73" width="2.71" height="14.93"/><path d="M109.36,658.07h-.12a4.38,4.38,0,0,1-4.37-4.37v-2.31a.49.49,0,0,0-.45-.5,26.89,26.89,0,0,0-3.11,0H96.76a12,12,0,0,1-3-.39,6.66,6.66,0,0,1-5-5.25,7.8,7.8,0,0,1,2.75-7.55h0a6.91,6.91,0,0,1,3.83-1.42c4.4-.29,10.89.75,14.67,4.67a12.69,12.69,0,0,1,3.09,5.21,26,26,0,0,1,.48,2.65,8.57,8.57,0,0,1,.16,2.72v2.19A4.38,4.38,0,0,1,109.36,658.07Zm-6.26-9.93c.49,0,1,0,1.46,0a3.21,3.21,0,0,1,3,3.21v2.31a1.65,1.65,0,0,0,1.65,1.65h.13A1.65,1.65,0,0,0,111,653.7v-3.42c-.12-1.08-.44-3-.54-3.39a10.07,10.07,0,0,0-2.45-4.07c-2.93-3-8.38-4.12-12.54-3.85a4.19,4.19,0,0,0-2.35.86,5.12,5.12,0,0,0-1.74,4.91,4,4,0,0,0,3,3.16,9.24,9.24,0,0,0,2.35.31h4.4c.72,0,1.32-.06,2-.06Z"/><path class="cls-2" d="M122.13,681.19a8.47,8.47,0,0,0-7.14-9.62,7.71,7.71,0,0,0-1.36-.09H94.8a9.53,9.53,0,0,0-9.29,7.38,8.4,8.4,0,0,0-.08,3.2l.24,2.75h36.18Z"/><path class="cls-3" d="M698.35,616.13V509.28a10.45,10.45,0,0,0-10.42-10.42H568.29a10.46,10.46,0,0,0-10.42,10.42v92.08h1.25a14.74,14.74,0,0,1,14.69,14.69v34a14.74,14.74,0,0,1-14.69,14.69h-1.25v51.17H698.35V649.37l6.86-12.71Z"/><path d="M781.26,667.39h-2.71v-1.14a6.51,6.51,0,0,1,.11-1v-.14c0-.38.12-.75.19-1.12l0-.27c.06-.29.11-.6.19-.86l.26-.83.09-.25c.13-.37.25-.73.4-1.08s.31-.7.48-1,.35-.68.55-1l.13-.24c.14-.25.29-.5.45-.74s.44-.6.67-.93a7.69,7.69,0,0,1,.65-.77l.21-.25c.21-.23.42-.47.65-.7s.54-.53.83-.78.48-.39.73-.6l.34-.27c.24-.19.49-.38.75-.55s.59-.38.93-.57.71-.4,1-.57.6-.26.86-.38l.48-.2c.25-.11.51-.22.77-.31s.56-.17.84-.24l.27-.07q.54-.15,1.11-.27l.14,0c.32-.06.65-.13,1-.17l1.13-.11h3.47v2.72H795a6.36,6.36,0,0,0-1,.09c-.32,0-.54.09-.81.14l-.14,0-.93.23-.29.07-.65.18-.56.23-.33.15-.21.08c-.23.1-.46.19-.68.3s-.6.3-.85.46-.6.33-.82.5-.4.29-.6.44l-.37.28-.6.46a8.38,8.38,0,0,0-.7.66c-.23.23-.35.38-.52.57l-.22.25a7.81,7.81,0,0,0-.53.64l-.6.78a2.9,2.9,0,0,0-.34.57l-.16.27c-.16.27-.31.55-.46.85s-.28.6-.4.87-.23.6-.34.91l-.1.29-.2.6a5.7,5.7,0,0,0-.14.65l-.06.3c-.06.31-.12.63-.16.95v.15a7.43,7.43,0,0,0-.09.81c0,.28,0,.6,0,.88Z"/><path d="M781.29,667.39h-2.71c0-.15,0-.31,0-.47s0-.36,0-.54,0-.39,0-.6a3.23,3.23,0,0,0,0-.44c0-.22,0-.43-.07-.64l-.06-.37c0-.34-.08-.68-.13-1s-.11-.67-.18-1v-.12c-.06-.29-.12-.6-.19-.87a4.28,4.28,0,0,0-.14-.43c0-.14-.13-.35-.18-.54s-.09-.33-.13-.5-.08-.32-.13-.48l-.08-.23c-.08-.25-.16-.49-.25-.74a4.54,4.54,0,0,0-.21-.45c-.08-.15-.15-.31-.22-.47s-.11-.29-.17-.44l-.21-.5c-.08-.16-.21-.41-.32-.6l-.16-.3c-.08-.15-.15-.3-.22-.45s-.15-.31-.23-.46a3.62,3.62,0,0,0-.27-.41c-.1-.14-.21-.28-.3-.43s-.37-.6-.56-.85-.26-.36-.39-.53l-.23-.29-.26-.37c-.11-.15-.21-.31-.33-.45l-.66-.77-.7-.75c-.23-.24-.48-.48-.72-.71l-.32-.32-.41-.4-.54-.44-.25-.2c-.14-.12-.3-.23-.45-.34l-.37-.26-.38-.31c-.14-.12-.28-.22-.42-.32s-.37-.25-.57-.37l-.51-.32-.64-.4-.89-.49c-.17-.09-.33-.16-.5-.23l-.43-.19-.36-.18-.55-.27-.55-.2-.41-.15-.42-.17-.52-.2-.35-.12-.6-.21a2.83,2.83,0,0,0-.47-.1l-.52-.1-.52-.15a2.75,2.75,0,0,0-.47-.13l-.76-.13-.47-.08-.77-.11-.26,0-.75-.08H743.92a4.47,4.47,0,0,1-.73,0,4,4,0,0,1-.69,0h-.45v-2.71c.24,0,.47,0,.7,0h.84a6.06,6.06,0,0,1,.73,0h11.26c.25,0,.6.06.88.09l.24,0,.89.14.46.07c.29.05.6.09.88.15s.48.12.71.2l.37.1.39.08.72.16.76.25.31.11a5.8,5.8,0,0,1,.69.27l.36.14.35.13c.23.08.47.16.71.26l.69.33.32.16.35.16a5.11,5.11,0,0,1,.67.31l1,.54c.33.19.5.31.74.46l.48.31a8.09,8.09,0,0,1,.69.44c.22.15.39.29.6.45l.3.24.31.22c.2.15.4.29.6.45l.23.19c.22.17.43.35.63.53a6.75,6.75,0,0,1,.54.52l.27.26.8.8c.26.27.52.54.77.82s.49.6.73.86.3.39.45.6l.22.31.2.26c.16.21.33.42.48.64a9.93,9.93,0,0,1,.59.94l.22.32a7.11,7.11,0,0,1,.41.6,6.77,6.77,0,0,1,.33.66l.18.35.15.27c.12.24.25.48.37.73h0v-.26a5.07,5.07,0,0,1,0-.68V641.49a5,5,0,0,1,0-.67,2.67,2.67,0,0,0,0-.4V628.56h2.71v11.88a3.75,3.75,0,0,1,0,.67,2.67,2.67,0,0,0,0,.4v1.08a3.09,3.09,0,0,0,0,.43v1.29a3.09,3.09,0,0,0,0,.43v9.73a2.67,2.67,0,0,0,0,.4v8.83a3.23,3.23,0,0,0,0,.44v2.6C781.32,666.85,781.29,667.05,781.29,667.39Z"/><path d="M781.29,648.84h-2.71v-1.13a7.74,7.74,0,0,1,.06-.86v-.26c0-.38.07-.75.11-1.12l0-.3c0-.28.06-.55.1-.82s.13-.74.2-1.11.13-.57.2-.86l.06-.24c.09-.37.19-.73.29-1.09s.21-.69.33-1,.25-.71.38-1l.1-.28c.1-.28.21-.56.33-.83l.13-.31c.1-.24.2-.49.32-.73s.24-.49.37-.73l.14-.27c.18-.33.36-.66.55-1a5.21,5.21,0,0,1,.4-.6l.21-.32.2-.34c.12-.2.25-.4.38-.59s.3-.4.45-.6l.24-.31.17-.22c.17-.23.34-.46.52-.67L785,631a7.8,7.8,0,0,1,.6-.69c.22-.22.5-.56.77-.83s.35-.34.53-.51l.29-.26c.27-.26.54-.52.82-.77l.29-.26a6.52,6.52,0,0,1,.55-.5c.19-.16.4-.31.59-.46l.29-.21c.3-.23.6-.45.92-.66l.11-.09c.27-.18.54-.37.82-.54l1-.6.71-.38.28-.15,1-.5,1-.46.33-.15c.23-.1.47-.21.71-.3s.47-.16.71-.24l.35-.11,1.08-.34h.07c.34-.09.67-.19,1-.27l.82-.18.29,0,.37-.08c.24-.06.48-.12.73-.16l.75-.09.37,0,1.12-.12.38,0c.25,0,.49-.05.75-.06h1.12v2.71h-1c-.19,0-.37,0-.6,0l-.44,0-1,.11-.43,0a3.3,3.3,0,0,0-.6.08l-.56.11-.43.1-.31.06c-.22,0-.46.08-.69.14l-.91.25h-.07l-1,.31-.4.12-.56.19-.56.24-.38.16-.93.42-.91.45-.3.17-.6.31c-.29.17-.6.34-.87.52l-.72.5-.12.08c-.28.19-.55.39-.82.6l-.33.24-.49.37a3.35,3.35,0,0,0-.38.35l-.37.34-.75.69-.35.33-.4.36c-.23.25-.46.5-.68.76a7.19,7.19,0,0,0-.5.6l-.15.19c-.16.18-.29.37-.44.57l-.18.24-.3.37c-.11.14-.23.28-.33.43s-.17.28-.25.42-.17.3-.27.45-.17.27-.26.4-.21.3-.3.45-.32.6-.49.9l-.15.28c-.1.21-.22.41-.31.6a6.39,6.39,0,0,0-.26.6l-.15.34c-.1.24-.19.48-.28.73l-.1.28q-.18.45-.33.9c-.11.3-.22.65-.31,1s-.19.66-.26,1l-.07.25c-.06.25-.12.49-.17.74s-.12.66-.18,1l-.09.7,0,.31c0,.34-.07.67-.1,1v.29c0,.24-.05.48-.06.73s0,.55,0,.83Z"/><path d="M779.92,717.16l-1.36-1.37V667.37h2.71V687h0v28.84h0C781.15,716.61,780.87,717.16,779.92,717.16Z"/><polygon points="619.97 716.13 617.25 716.13 617.25 672.12 601.47 672.12 601.47 687.76 598.75 687.76 598.75 669.41 619.97 669.41 619.97 716.13"/><polygon points="601.24 716.13 598.53 716.13 598.53 672.12 582.74 672.12 582.74 687.76 580.02 687.76 580.02 669.41 601.24 669.41 601.24 716.13"/><rect x="621.01" y="568.64" width="53.36" height="2.71"/><rect x="720.91" y="598.88" width="73.77" height="2.71"/><rect x="784.07" y="540.15" width="2.71" height="71.38"/><rect x="761.6" y="579.95" width="55.53" height="2.71"/><polygon points="675.75 618.13 631.73 618.13 631.73 615.42 673.03 615.42 673.03 592.52 675.75 592.52 675.75 618.13"/><polygon points="622.53 616.99 619.81 616.99 619.81 591.16 684.34 591.16 684.34 593.87 622.53 593.87 622.53 616.99"/><path d="M622.53,595.17h-2.72V521.4h55.91v27H622.53Zm0-49.5H673V524.11h-50.5Z"/><rect x="655.23" y="523.17" width="2.71" height="94.58"/><rect x="672.95" y="558.82" width="2.71" height="58.93"/><rect x="638.64" y="560.82" width="2.71" height="56"/><rect x="638.64" y="523.19" width="2.71" height="24.48"/><polygon points="283.73 715.7 281.01 715.7 281.01 592.62 194.3 592.62 194.3 631.53 191.59 631.53 191.59 589.9 283.73 589.9 283.73 715.7"/><path class="cls-3" d="M148.29,607.53h82.25a7.62,7.62,0,0,1,7.62,7.62h0V716.77H140.67V615.15A7.62,7.62,0,0,1,148.29,607.53Z"/><path class="cls-4" d="M363.29,602.28a32.08,32.08,0,0,0-43.51-46.65,3.7,3.7,0,0,1-4.45,0,32.08,32.08,0,0,0-43.52,46.62,3.81,3.81,0,0,1,0,5,32.09,32.09,0,0,0,43.52,46.63,3.74,3.74,0,0,1,4.45,0,32.08,32.08,0,0,0,43.51-46.63A3.79,3.79,0,0,1,363.29,602.28Z"/><path d="M319.89,639.93h-2.7a8.23,8.23,0,0,0-8.22-8.22V629A10.94,10.94,0,0,1,319.89,639.93Z"/><path d="M319.89,628h-2.7a17.37,17.37,0,0,0-17.33-17.35h-7.61V608h7.61A20.07,20.07,0,0,1,319.89,628Z"/><path d="M319.89,632.55h-2.7a15,15,0,0,1,15-15v2.72A12.28,12.28,0,0,0,319.89,632.55Zm12.27-12.27v-2.71h0Z"/><path d="M302.07,717.15H267.66v-2.71h34.41a15.14,15.14,0,0,0,15.12-15.13V606.6h2.7v92.71A17.86,17.86,0,0,1,302.07,717.15Z"/><path class="cls-5" d="M814.66,608.57h66.62a8.86,8.86,0,0,1,8.86,8.86h0v98.36H805.8V617.43a8.86,8.86,0,0,1,8.86-8.86Z"/><path class="cls-6" d="M497.69,481.57a21.86,21.86,0,0,0,.22-3.13c0-12-9.5-21.76-21.23-21.76s-21.23,9.75-21.23,21.76a22.66,22.66,0,0,0,.21,3.08c-.07,0,.07,0,0,.07.21.75.22,1.51.44,2.22a22.1,22.1,0,0,0,1.52,4.24c2.85,6.92,7.14,11.55,16,19.36a4.65,4.65,0,0,0,6.17,0c7.84-7,12.84-13,15.63-18.71a20.86,20.86,0,0,0,1.12-2.51,22.36,22.36,0,0,0,1.16-4.48C497.62,481.69,497.77,481.59,497.69,481.57Z"/><path d="M475.9,673.5h-18V612.71h18Zm-15.3-2.71h12.58V615.42H460.6Z"/><rect x="569.36" y="714.66" width="83.01" height="2.71"/><rect x="644.68" y="714.66" width="175.48" height="2.71"/><rect x="933.85" y="714.66" width="81.13" height="2.71"/><path d="M728.93,698.14h-2.71a15,15,0,0,1,14.92-14.91h2v2.71h-2A12.24,12.24,0,0,0,728.93,698.14Z"/><path d="M728.93,698.14h-2.71a21.06,21.06,0,0,0-21-21V674.4a23.76,23.76,0,0,1,21,12.73v-4.59h2.71Z"/><path d="M729,682.54h-2.71A23.78,23.78,0,0,1,750,658.79v2.72A21.06,21.06,0,0,0,729,682.54Z"/><rect x="726.21" y="698.13" width="2.71" height="17.61"/><rect x="224.63" y="714.66" width="153.06" height="2.71"/><rect x="430.82" y="640.65" width="44.47" height="2.71"/><rect x="458.91" y="654.69" width="16.38" height="2.71"/><path d="M222.08,674.07h-44.7V626.56h44.7Zm-42-2.71h39.27V629.27H180.1Z"/><rect x="205.81" y="627.58" width="2.71" height="30.43"/><rect x="191.42" y="627.92" width="2.71" height="57.41"/><path d="M832.43,740.78H824v-11h8.43Zm-5.72-2.72h3v-5.53h-3Z"/><path d="M853.12,740.78h-8.43v-11h8.43Zm-5.72-2.72h3v-5.53h-3Z"/><path d="M857.34,732.53H820.12v-18h37.22Zm-34.5-2.72h31.79V717.23H822.84Z"/><polygon points="862.22 732.7 814.91 732.7 814.91 723.09 817.62 723.09 817.62 729.98 859.51 729.98 859.51 723.09 862.22 723.09 862.22 732.7"/><rect x="821.68" y="719.28" width="33.7" height="2.71"/><rect x="821.68" y="724.22" width="33.7" height="2.71"/><rect x="947.79" y="554.64" width="26.13" height="2.71"/><rect x="959.19" y="575.01" width="47.86" height="2.71"/><rect x="513.98" y="521.82" width="68.18" height="2.71"/><rect x="428.57" y="586.82" width="25.75" height="2.71"/><rect x="55.33" y="464.02" width="12.65" height="2.71"/><rect x="60.3" y="455.91" width="2.71" height="18.94"/><rect x="35.3" y="486.09" width="7.25" height="2.71"/><rect x="37.56" y="482.03" width="2.71" height="10.84"/><rect x="856.63" y="541.76" width="12.65" height="2.71"/><rect x="861.6" y="533.65" width="2.71" height="18.94"/><rect x="836.6" y="563.83" width="7.25" height="2.71"/><rect x="838.87" y="559.76" width="2.71" height="10.84"/><rect x="268.61" y="496.32" width="13.47" height="2.71"/><rect x="273.98" y="487.6" width="2.71" height="20.16"/><rect x="289.06" y="521.18" width="9.36" height="2.71"/><rect x="292.38" y="515.54" width="2.71" height="14"/><rect x="548.35" y="559.7" width="18.22" height="2.71"/><rect x="556.11" y="547.42" width="2.71" height="27.27"/><rect x="573.56" y="570.59" width="12.65" height="2.71"/><rect x="578.53" y="562.48" width="2.71" height="18.94"/><path d="M476.46,500.09l-.88-.77c-7.1-6.1-10.18-9.81-12.23-14.69a14.72,14.72,0,0,1-1-2.81,4.2,4.2,0,0,1-.18-.87h0l-.16-.09v-.6l-.24-.83.16-.09c0-.39,0-.77,0-1.16a14.59,14.59,0,1,1,29.17,0c0,.33,0,.65,0,1l.12,0L491,480l.1.25-.23.39v.12a13.61,13.61,0,0,1-.74,2.73,17.94,17.94,0,0,1-.75,1.68c-1.6,3.21-5,8.33-12,14.22ZM464.74,480c0,.21.07.4.1.6a2.84,2.84,0,0,0,.1.49v.09a11.58,11.58,0,0,0,.85,2.35v.07c1.79,4.25,4.5,7.6,10.63,12.95,6.06-5.27,9-9.75,10.45-12.63a12.47,12.47,0,0,0,1.2-3.56l-.12-.28.21-.36a11.23,11.23,0,0,0,.1-1.53,11.88,11.88,0,1,0-23.75,0,9.75,9.75,0,0,0,0,1.08l.1.05Zm23.66-.56"/><path d="M476.47,483.89a5.95,5.95,0,1,1,5.95-5.94h0A6,6,0,0,1,476.47,483.89Zm0-9.17A3.24,3.24,0,1,0,479.7,478h0A3.23,3.23,0,0,0,476.47,474.72Z"/><path d="M723.05,537.91a4.36,4.36,0,1,1,4.35-4.35,4.36,4.36,0,0,1-4.35,4.35Zm0-6a1.64,1.64,0,1,0,1.64,1.64h0A1.65,1.65,0,0,0,723.05,531.92Z"/><path d="M414.75,489.44a4.36,4.36,0,1,1,4.36-4.35h0A4.35,4.35,0,0,1,414.75,489.44Zm0-6a1.64,1.64,0,1,0,1.65,1.64,1.62,1.62,0,0,0-1.65-1.64h0Z"/><path d="M31.55,558.55a4.35,4.35,0,1,1,4.34-4.35h0A4.34,4.34,0,0,1,31.55,558.55Zm0-6a1.64,1.64,0,1,0,1.63,1.64h0a1.63,1.63,0,0,0-1.63-1.63Z"/><path d="M992.29,600.56a4.35,4.35,0,1,1,4.36-4.35A4.35,4.35,0,0,1,992.29,600.56Zm0-6a1.64,1.64,0,1,0,1.64,1.63,1.62,1.62,0,0,0-1.64-1.6Z"/><path d="M243.45,492.85a4.35,4.35,0,1,1,4.34-4.35A4.35,4.35,0,0,1,243.45,492.85Zm0-6a1.64,1.64,0,1,0,1.63,1.64,1.63,1.63,0,0,0-1.63-1.64Z"/><path d="M234,565.71l-.87-.75c-7.1-6.1-10.18-9.81-12.23-14.7a14.66,14.66,0,0,1-1-2.8,6.72,6.72,0,0,1-.18-.87h0l-.16-.1v-.59l-.24-.84.17-.09c0-.39-.05-.78-.05-1.16a14.59,14.59,0,0,1,29.18-.59v.59c0,.32,0,.65,0,1l.12,0-.16.79.1.26-.22.39v.11a15.17,15.17,0,0,1-1.5,4.4c-1.6,3.23-5,8.33-12,14.23Zm-11.72-20.1a4.17,4.17,0,0,1,.1.6c0,.16.06.33.1.49v.08a11.61,11.61,0,0,0,.86,2.35v.07c1.79,4.26,4.49,7.61,10.63,13,6.06-5.27,9-9.75,10.45-12.63a15,15,0,0,0,.64-1.42,11.34,11.34,0,0,0,.6-2.14l-.12-.28.21-.36a11.89,11.89,0,1,0-23.53-3.43,12,12,0,0,0-.12,1.9,9.75,9.75,0,0,0,0,1.08l.1,0Zm23.67-.56"/><path d="M234.05,549.53a6,6,0,1,1,5.94-6h0A6,6,0,0,1,234.05,549.53Zm0-9.19a3.24,3.24,0,1,0,3.23,3.24h0A3.24,3.24,0,0,0,234.05,540.34Z"/><path d="M929,560.15l-.87-.76c-7.11-6.1-10.19-9.81-12.23-14.69a14.1,14.1,0,0,1-1-2.81,6.25,6.25,0,0,1-.18-.86h0l-.16-.09v-.6l-.24-.84.16-.09c0-.38,0-.77,0-1.15a14.59,14.59,0,1,1,29.17-.59,5.8,5.8,0,0,1,0,.59c0,.32,0,.65,0,1l.12,0-.15.8.1.25-.23.39v.11a13.73,13.73,0,0,1-.75,2.74,13.12,13.12,0,0,1-.75,1.67c-1.59,3.22-5,8.33-12,14.23Zm-11.72-20.09a4.28,4.28,0,0,1,.1.59,4,4,0,0,0,.1.5v.09a12.12,12.12,0,0,0,.85,2.34v.08c1.8,4.25,4.5,7.6,10.64,13,6.06-5.27,9-9.75,10.44-12.63a10.76,10.76,0,0,0,.64-1.43,9.93,9.93,0,0,0,.6-2.13l-.11-.28.21-.36c.06-.51.09-1,.1-1.53a11.88,11.88,0,0,0-23.76-.53v.53a7.6,7.6,0,0,0,0,1.07l.1.06Zm23.67-.56"/><path d="M929,544a6,6,0,1,1,6-6h0A6,6,0,0,1,929,544Zm0-9.18a3.24,3.24,0,1,0,3.23,3.24h0A3.23,3.23,0,0,0,929,534.78Z"/><path class="cls-5" d="M773.58,511.9a21.86,21.86,0,0,0,.22-3.13c0-12-9.51-21.76-21.23-21.76s-21.23,9.75-21.23,21.76a22.66,22.66,0,0,0,.21,3.08c-.07,0,.07,0,0,.07.21.75.21,1.51.44,2.22a22.1,22.1,0,0,0,1.52,4.24c2.67,6.49,6.59,11,14.38,18a7,7,0,0,0,9.41-.1c6.91-6.37,11.38-11.92,14-17.2a23.42,23.42,0,0,0,1.12-2.51,24,24,0,0,0,1.16-4.48S773.65,511.9,773.58,511.9Z"/><path d="M752.6,530.31l-.88-.75c-7.1-6.1-10.18-9.81-12.23-14.69a15.46,15.46,0,0,1-1-2.81,6.09,6.09,0,0,1-.18-.87h0l-.16-.09v-.6l-.24-.84.17-.08c0-.39,0-.78,0-1.17a14.59,14.59,0,0,1,29.18-.59v1.58h.12l-.16.79.11.25-.23.39v.11a14.14,14.14,0,0,1-.75,2.73,12.64,12.64,0,0,1-.75,1.68c-1.59,3.22-5,8.33-12,14.23ZM740.87,510.2c0,.21.08.41.11.6a4,4,0,0,0,.09.5v.08a12,12,0,0,0,.86,2.35v.08c1.8,4.25,4.5,7.6,10.63,13,6.06-5.27,9-9.75,10.45-12.63a12.22,12.22,0,0,0,.64-1.43,11.13,11.13,0,0,0,.6-2.14l-.11-.27.2-.36a11.23,11.23,0,0,0,.1-1.53,11.88,11.88,0,1,0-23.75-.54,4.86,4.86,0,0,0,0,.54,7.67,7.67,0,0,0,0,1.07l.09.06Zm23.67-.55"/><path d="M752.61,514.12a5.95,5.95,0,1,1,5.94-5.95h0A5.94,5.94,0,0,1,752.61,514.12Zm0-9.17a3.23,3.23,0,1,0,3.23,3.24v0A3.23,3.23,0,0,0,752.61,505Z"/><path d="M763.73,705.39H761a9.53,9.53,0,0,1,9.52-9.52v2.71A6.82,6.82,0,0,0,763.73,705.39Z"/><path d="M763.73,705.39H761a12.14,12.14,0,0,0-12.12-12.12v-2.71A14.8,14.8,0,0,1,761,696.85V674.76h2.71Z"/><path d="M763.78,696h-2.71a14.85,14.85,0,0,1,14.83-14.84v2.72A12.13,12.13,0,0,0,763.78,696Z"/><rect x="761.02" y="705.4" width="2.71" height="10.6"/><path d="M763.13,690.51l-1.68-2.13a17.81,17.81,0,0,0,3-25,18.62,18.62,0,0,0-2.15-2.29,17.66,17.66,0,0,0-6,13.29V676H753.6v-1.69a20.42,20.42,0,0,1,7.83-16.13l.84-.66.84.66A20.53,20.53,0,0,1,766.56,687a20.79,20.79,0,0,1-3.45,3.44Z"/><path d="M761.19,689.55a12.74,12.74,0,0,1-9-3.76h0a12.76,12.76,0,0,1-3.67-10.58l.13-1.06,1.06-.12a12.81,12.81,0,0,1,14.24,14.24l-.12,1.06-1.06.13A13.13,13.13,0,0,1,761.19,689.55Zm-7.12-5.68a10,10,0,0,0,7.22,3,10.1,10.1,0,0,0-10-10.19h-.16a10,10,0,0,0,3,7.22Z"/><path d="M295.63,705.39h-2.7a9.53,9.53,0,0,1,9.53-9.52v2.71A6.83,6.83,0,0,0,295.63,705.39Z"/><path d="M295.63,705.39h-2.7a12.13,12.13,0,0,0-12.12-12.12v-2.71a14.81,14.81,0,0,1,12.12,6.31v-8.76h2.72Z"/><path d="M295.65,696h-2.72a14.86,14.86,0,0,1,14.84-14.84v2.72A12.14,12.14,0,0,0,295.65,696Z"/><rect x="292.92" y="705.4" width="2.71" height="10.6"/><path d="M295.66,688.11h-2.73c0-4-.84-6.46-2.88-8.5a10.07,10.07,0,0,0-8.34-2.89l-.32-2.69A12.72,12.72,0,0,1,292,677.69C295.22,680.93,295.66,684.77,295.66,688.11Z"/><rect x="166.8" y="714.44" width="66.07" height="2.71"/><rect x="11.06" y="682.96" width="135.58" height="2.71"/><rect x="14.65" y="738.36" width="208.06" height="2.71"/><rect x="246.25" y="691.57" width="34.55" height="2.71"/><rect x="10.34" y="589.97" width="48.08" height="2.71"/><rect x="572.12" y="756.72" width="105.45" height="2.71"/><rect x="406.12" y="755.72" width="105.45" height="2.71"/><rect x="38.73" y="760.38" width="37.06" height="2.71"/><rect x="114.96" y="782.12" width="55.39" height="2.71"/><rect x="386.68" y="683.04" width="54.48" height="2.71"/><rect x="146.96" y="547.63" width="58.68" height="2.71"/><rect x="103.93" y="473.8" width="43.59" height="2.71"/><rect x="178.74" y="656.5" width="37.45" height="2.71"/><rect x="179.07" y="641.86" width="41.12" height="2.71"/><rect y="713.72" width="16.68" height="2.71"/><rect x="269.67" y="781.92" width="22.73" height="2.71"/><rect x="212.31" y="781.92" width="31.94" height="2.71"/><rect x="398.88" y="804.99" width="214.93" height="2.71"/><rect x="831.04" y="780.28" width="160.82" height="2.71"/><rect x="638.28" y="780.28" width="65.14" height="2.71"/><path d="M351,740.3H291.73V725.68H351Zm-56.62-2.71h53.92v-9.2H294.42Z"/><path d="M351,762.43H291.73V747.8H351Zm-56.62-2.71h53.92v-9.2H294.42Z"/><path d="M351,784.56H291.73V769.93H351Zm-56.62-2.71h53.92v-9.2H294.42Z"/><rect x="91.78" y="759.9" width="97.64" height="2.71"/><rect x="802.29" y="761.72" width="31.41" height="2.71"/><rect x="809.96" y="738.65" width="65.88" height="2.71"/><rect x="653.49" y="732.85" width="62.86" height="2.71"/><rect x="258.19" y="641.93" width="2.71" height="73.56"/><rect x="173.76" y="517.06" width="2.71" height="51.33"/><polygon points="194.5 627.02 191.78 627.02 191.78 529.67 126.39 529.67 126.39 526.96 194.5 526.96 194.5 627.02"/><polygon points="45.71 614.26 43 614.26 43 577.76 102.9 577.76 102.9 563.11 105.62 563.11 105.62 580.48 45.71 580.48 45.71 614.26"/><path d="M396.76,616.18H378.05V597.47h18.71Zm-16-2.71h13.29V600.18H380.76Z"/><rect x="386" y="599.24" width="2.71" height="16.25"/><path d="M396.76,643.85H378.05V625.12h18.71Zm-16-2.72h13.29V627.85H380.76Z"/><path d="M513.78,586.34H495.07V567.61h18.71Zm-16-2.72h13.28V570.34H497.81Z"/><rect x="386" y="626.9" width="2.71" height="16.25"/><path class="cls-2" d="M964.77,610.14c-20.19,0-73.09,105.11-44.33,118,17.55,7.9,70.21,7.45,91.71,0,30-10.43-27.65-118-47.39-118"/><path d="M966.13,719.31h-2.72a8.87,8.87,0,0,0-.12-1.45,10.06,10.06,0,0,0-.8-2.78,10.47,10.47,0,0,0-.7-1.27,10.09,10.09,0,0,0-.86-1.2,9.13,9.13,0,0,0-1-1,12.16,12.16,0,0,0-1.13-.91,10,10,0,0,0-1.29-.69,14.09,14.09,0,0,0-2.78-.82,10.13,10.13,0,0,0-1.46-.07v-2.72a10.67,10.67,0,0,1,3.64.52,13.1,13.1,0,0,1,1.73.6,14.49,14.49,0,0,1,4.39,3.3,13.11,13.11,0,0,1,1.09,1.48,14.9,14.9,0,0,1,.89,1.61,12.91,12.91,0,0,1,.64,1.74,12.12,12.12,0,0,1,.38,1.79A13.23,13.23,0,0,1,966.13,719.31Z"/><path d="M966.08,704.94h-2.71v-1.52c0-.45-.09-.94-.17-1.5s-.15-.89-.28-1.49l-.09-.46c-.08-.36-.15-.7-.24-1s-.28-.89-.48-1.43c-.11-.3-.26-.6-.41-.93l-.22-.46-.13-.3c-.17-.37-.33-.73-.51-1.06s-.54-.89-.79-1.29-.47-.67-.74-1l-.15-.19c-.37-.49-.65-.85-.94-1.2s-.67-.77-1-1.12-.72-.68-1.11-1l-.37-.33q-.4-.36-.78-.66a7.11,7.11,0,0,0-.79-.51l-.48-.31-.6-.39a8.18,8.18,0,0,0-.69-.45c-.44-.24-.91-.46-1.36-.67-.28-.13-.6-.24-.92-.36l-.49-.17-.54-.21a7.28,7.28,0,0,0-.88-.32,9.6,9.6,0,0,0-1-.22l-.52-.11c-.32-.07-.67-.11-1-.16l-.88-.12c-.38-.06-.73-.12-1.08-.14h-.25c-.44,0-.86-.06-1.26-.06h-2.27V681h2.27c.6,0,1,0,1.46.07h.24c.46,0,.88.1,1.3.16l.81.12a12.32,12.32,0,0,1,1.27.2l.47.1a12,12,0,0,1,1.2.27c.38.12.76.26,1.13.41l.47.18.45.17c.37.13.75.27,1.15.44s1,.47,1.53.75a9.6,9.6,0,0,1,1,.6l.46.32.43.27a11.47,11.47,0,0,1,1,.66c.34.25.67.54,1,.81l.33.29c.43.38.85.74,1.26,1.15s.79.85,1.15,1.26.65.79,1.06,1.33l.14.19a13.59,13.59,0,0,1,.86,1.2c.25.43.59.93.88,1.45s.42.84.6,1.25l.13.29.2.42c.17.36.35.73.5,1.14.23.6.4,1.13.55,1.62s.2.84.29,1.24l.09.42c.14.67.24,1.2.31,1.68s.15,1.2.18,1.7a12,12,0,0,1,0,1.2A2.89,2.89,0,0,1,966.08,704.94Z"/><path d="M966.15,710.41h-2.72v-.09a15.17,15.17,0,0,1,.06-1.65,14.13,14.13,0,0,1,.25-1.73,11.48,11.48,0,0,1,.38-1.42l.08-.27c.18-.55.38-1.1.6-1.63s.44-1,.73-1.59l.18-.34c.2-.41.43-.81.67-1.2a14.38,14.38,0,0,1,.9-1.16l.18-.22a14.55,14.55,0,0,1,1.2-1.29,16.2,16.2,0,0,1,1.28-1.2c.41-.32.83-.63,1.27-.91l.15-.1c.52-.35,1-.64,1.49-.9l.2-.11a14.28,14.28,0,0,1,1.36-.67,16.17,16.17,0,0,1,1.66-.57,15.9,15.9,0,0,1,1.68-.43,17.37,17.37,0,0,1,1.73-.28,17,17,0,0,1,1.75-.08h2.66v2.72h-2.66a11.57,11.57,0,0,0-1.49.06c-.45.07-1,.15-1.46.24a12.17,12.17,0,0,0-1.43.37,11.85,11.85,0,0,0-1.4.48,9.55,9.55,0,0,0-1.11.55l-.21.11c-.4.22-.81.47-1.26.77l-.16.1c-.38.25-.73.49-1.05.75a14.67,14.67,0,0,0-1.09,1c-.33.33-.65.69-1,1.1l-.18.22a10.77,10.77,0,0,0-.73.94,7.1,7.1,0,0,0-.52.93l-.2.37a9.72,9.72,0,0,0-.6,1.34c-.21.51-.37,1-.5,1.39l-.09.28a10.62,10.62,0,0,0-.31,1.14,11.82,11.82,0,0,0-.21,1.47,12.19,12.19,0,0,0,0,1.38Z"/><path d="M1027.64,782.84h-46.9a17.36,17.36,0,0,1-17.32-17.33V659.65h2.71V765.51a14.64,14.64,0,0,0,14.61,14.62h46.9Z"/><path d="M47.64,684.38H44.93V683a9.58,9.58,0,0,1,9.58-9.55H65.07a8.49,8.49,0,0,1,8.49,8.48v2.48H70.81v-2.49A5.79,5.79,0,0,0,65,676.16H54.48A6.84,6.84,0,0,0,47.64,683Z"/><polygon points="408.54 718.47 405.83 718.47 405.83 586.57 346.6 586.57 346.6 583.86 408.54 583.86 408.54 718.47"/><rect class="cls-7" x="55.48" y="486.54" width="65.48" height="71.48" rx="15.87"/><path d="M201.28,502.28H170.76a9.75,9.75,0,0,1-9.74-9.75h2.71a7,7,0,0,0,7,7h30.52a7,7,0,0,0,7-7V455.75a7,7,0,0,0-7-7H170.76a7,7,0,0,0-7,7v19.49H161V455.75a9.74,9.74,0,0,1,9.74-9.74h30.52a9.75,9.75,0,0,1,9.75,9.74v36.78A9.77,9.77,0,0,1,201.28,502.28Z"/><path d="M186.24,470.48l-.83-.6c-3.24-2.3-3.68-6.53-3.7-6.71v-.83a9.5,9.5,0,0,1,3.65-7.5l.84-.66.84.66a9.58,9.58,0,0,1,1.55,13.46,10.33,10.33,0,0,1-1.55,1.55Zm-1.8-7.5a8,8,0,0,0,1.73,4,6.85,6.85,0,0,0,0-9.21,6.84,6.84,0,0,0-1.8,4.59Z"/><path d="M189.47,480a10.88,10.88,0,0,1-1.14-.06l-1-.12-.17-1c-.68-3.91,2-7.18,2.12-7.35l.09-.09.51-.51a9.53,9.53,0,0,1,7.88-2.73l1.07.12.12,1.07a9.55,9.55,0,0,1-8.36,10.61A8.27,8.27,0,0,1,189.47,480Zm1.86-6.77a8,8,0,0,0-1.57,4.05,6.84,6.84,0,0,0,6.52-6.5,6.84,6.84,0,0,0-4.5,2Z"/><path d="M183.17,480a10.47,10.47,0,0,1-6.07-2.25l-.1-.08-.51-.51a9.53,9.53,0,0,1-2.73-7.88l.12-1.07,1.07-.12a9.56,9.56,0,0,1,10.62,10.62l-.12,1-1,.17A6.84,6.84,0,0,1,183.17,480Zm-4.3-4.29a7.9,7.9,0,0,0,4,1.57,6.85,6.85,0,0,0-6.49-6.53,6.81,6.81,0,0,0,2,4.5Z"/><path d="M189.47,492a10.88,10.88,0,0,1-1.14-.06l-1-.12-.17-1c-.68-3.91,2-7.19,2.12-7.35l.09-.1.51-.51a9.53,9.53,0,0,1,7.88-2.73l1.07.13.12,1.06a9.56,9.56,0,0,1-8.36,10.62A10.32,10.32,0,0,1,189.47,492Zm1.86-6.77a8,8,0,0,0-1.57,4.05,6.84,6.84,0,0,0,6.52-6.5,6.85,6.85,0,0,0-4.5,2Z"/><path d="M183.17,492a10.47,10.47,0,0,1-6.07-2.25l-.1-.09-.51-.51a9.53,9.53,0,0,1-2.73-7.88l.12-1.07,1.07-.12a9.56,9.56,0,0,1,10.62,8.36,10.58,10.58,0,0,1,0,2.25l-.12,1-1,.17A6.86,6.86,0,0,1,183.17,492Zm-4.3-4.29a7.82,7.82,0,0,0,4,1.57,6.85,6.85,0,0,0-6.49-6.53,6.79,6.79,0,0,0,2,4.5Z"/><rect class="cls-8" x="319.96" y="464.02" width="65.48" height="71.48" rx="15.87"/><path d="M368,527.9H337.41a9.74,9.74,0,0,1-9.73-9.74V481.35a9.74,9.74,0,0,1,9.74-9.74H368a9.74,9.74,0,0,1,9.73,9.74v36.79A9.75,9.75,0,0,1,368,527.9Zm-30.55-53.55a7,7,0,0,0-7,7v36.79a7,7,0,0,0,7,7H368a7,7,0,0,0,7-7V481.35a7,7,0,0,0-7-7Z"/><path d="M360,514.33H347v-8.39h-8.39V492.89H347v-8.38H360v8.38h8.38V506H360Zm-10.37-2.72h7.65v-8.38h8.36v-7.62h-8.36v-8.39h-7.65v8.39h-8.38v7.65h8.38Z"/><path d="M103.75,550.24H73.23a9.76,9.76,0,0,1-9.73-9.77V503.69a9.75,9.75,0,0,1,9.73-9.76h30.52a9.77,9.77,0,0,1,9.75,9.75v36.78a9.75,9.75,0,0,1-9.73,9.78ZM73.23,496.65a7,7,0,0,0-7,7v36.78a7,7,0,0,0,7,7h30.52a7,7,0,0,0,7-7V503.69a7.06,7.06,0,0,0-7-7Z"/><path d="M101.33,535.93H98.62a10,10,0,0,0-20.09,0H75.82a12.76,12.76,0,1,1,25.51-.55A5,5,0,0,1,101.33,535.93Z"/><rect x="72.71" y="538.56" width="31.1" height="2.71"/><path d="M82.18,516.49a7.34,7.34,0,0,1-.22-1.86,8.39,8.39,0,0,1,2-5.35,5.74,5.74,0,0,0,0-7.93A8.44,8.44,0,0,1,82,496h2.71a5.87,5.87,0,0,0,1.53,3.75,8.42,8.42,0,0,1,0,11.13,5.87,5.87,0,0,0-1.53,3.75,5.3,5.3,0,0,0,.14,1.19Z"/><path d="M91.47,516.49a7.34,7.34,0,0,1-.22-1.86,8.45,8.45,0,0,1,2-5.35,5.74,5.74,0,0,0,0-7.93,8.5,8.5,0,0,1-2-5.35H94a5.87,5.87,0,0,0,1.53,3.75,8.42,8.42,0,0,1,0,11.13A5.87,5.87,0,0,0,94,514.63a5.3,5.3,0,0,0,.14,1.19Z"/><path d="M76.23,698.48H73a3.72,3.72,0,0,1-.65,0,2,2,0,0,0-.43,0H69.73a5,5,0,0,1-.67,0h-.83c-.17,0-.33,0-.66,0H60a3.23,3.23,0,0,0-.44,0H55.71v-2.71H68l.66,0a4,4,0,0,1,.68,0h2.58c.22,0,.44,0,.65,0H89.23c.23,0,.45,0,.67,0H95a5.63,5.63,0,0,1,.71,0h3.64a5.49,5.49,0,0,1,.7,0,5.27,5.27,0,0,1,.68,0h.41v2.71a5.16,5.16,0,0,1-.68,0h-.8a5.37,5.37,0,0,1-.7,0H95.37a5.48,5.48,0,0,1-.7,0H90.34c-.23,0-.45,0-.68,0H76.23Z"/><path d="M68.67,709.3a4.49,4.49,0,0,1-.73-.06h-4a5.12,5.12,0,0,1-.67,0H55.71v-2.71h8c.17,0,.33,0,.67,0H67.6a4,4,0,0,1,.69.05H79.41a5,5,0,0,1,.67,0h3a5.32,5.32,0,0,1,.69,0h1.08a5.32,5.32,0,0,1,.69,0h15.54v2.72H86a5.17,5.17,0,0,1-.68,0H83.41a5.32,5.32,0,0,1-.69,0H80.55a3.79,3.79,0,0,1-.66,0,2.8,2.8,0,0,0-.41,0H70.26a3.68,3.68,0,0,0-.47,0h-.43A5.3,5.3,0,0,1,68.67,709.3Z"/><path d="M90.08,708.69H87.36V696.86h2.72v11.83Z"/><path d="M71.29,719H68.57V708.44h2.72V719Z"/><rect x="79.19" y="600.98" width="2.71" height="83.58" transform="translate(-52.4 8.76) rotate(-4.7)"/><path d="M11.27,639a1.38,1.38,0,0,1-1.36-1.37,1.39,1.39,0,0,1,.4-1,105.94,105.94,0,0,1,137.36-10.29,1.38,1.38,0,0,1,.29,1.91,1.39,1.39,0,0,1-1,.54L11.38,639ZM85,608.54q-3.84,0-7.7.29A103.3,103.3,0,0,0,14.93,636L143,626.38a103.38,103.38,0,0,0-58-17.84Z"/><path d="M49.66,635.26a1.35,1.35,0,0,1-1.36-1.34,1.44,1.44,0,0,1,.13-.58c8.19-17.84,27.56-27,28.4-27.33a1.24,1.24,0,0,1,.66-.12c.67,0,16.77,1.34,31.33,23.14a1.36,1.36,0,1,1-2.26,1.5c-7.18-10.78-14.77-16.17-19.86-18.79a29.16,29.16,0,0,0-9.06-3.11c-2.58,1.28-19.53,10.15-26.72,25.84A1.36,1.36,0,0,1,49.66,635.26Z"/><rect x="551.52" y="686.54" width="39.12" height="2.71"/><rect x="532.68" y="666.65" width="2.71" height="40.68"/><polygon points="527.1 601.36 529.81 601.36 529.81 541.41 439.07 541.41 439.07 716.6 441.78 716.6 441.78 544.13 527.1 544.13 527.1 601.36"/><path d="M557.33,657.16H520.76a8.77,8.77,0,0,1-8.75-8.75v-30.7a8.75,8.75,0,0,1,8.75-8.76h36.57a8.76,8.76,0,0,1,8.77,8.74v30.72a8.77,8.77,0,0,1-8.77,8.75Zm-36.57-45.48a6.05,6.05,0,0,0-6,6v30.7a6,6,0,0,0,6,6.06h36.59a6,6,0,0,0,6-6V617.71a6,6,0,0,0-6-6Z"/><path d="M532.73,624.85a5.17,5.17,0,0,1,3.77,1.51,5.24,5.24,0,0,1,0,7.4h0a5.17,5.17,0,0,1-3.77,1.51H530v5.1h-3V624.85Zm0,7.56a2.13,2.13,0,0,0,1.62-.7,2.51,2.51,0,0,0,0-3.36,2.19,2.19,0,0,0-1.62-.67H530v4.71Z"/><rect x="542.21" y="654.83" width="2.71" height="53.08"/><polygon points="358.12 716.93 355.4 716.93 355.4 675.21 339.62 675.21 339.62 715.79 336.9 715.79 336.9 672.5 358.12 672.5 358.12 716.93"/><rect x="684.54" y="462.48" width="20.14" height="2.71"/><rect x="245.59" y="669.63" width="24.74" height="2.71"/><path d="M891.44,672.68h-2.71a11.51,11.51,0,0,0-11.5-11.49v-2.72A14.23,14.23,0,0,1,891.44,672.68Z"/><path d="M891.44,656.68h-2.71A23.75,23.75,0,0,0,865,633H854.83v-2.71H865A26.45,26.45,0,0,1,891.44,656.68Z"/><path d="M891.44,662.78h-2.71a19.66,19.66,0,0,1,19.63-19.64h16.5v2.72h-16.5A16.94,16.94,0,0,0,891.44,662.78Z"/><rect x="888.73" y="627.97" width="2.71" height="106.33"/><path d="M890.4,698.27a60.22,60.22,0,1,1,54.08-86.73l-2.43,1.2a57.48,57.48,0,1,0-36.29,80.75l.71,2.62A60.15,60.15,0,0,1,890.4,698.27Z"/><rect x="216.01" y="282.03" width="31.75" height="1.06"/><rect x="175.77" y="307.71" width="62.94" height="1.06"/><path class="cls-2" d="M228.11,241.12c-7.9,0-28.6,41.14-17.35,46.19,6.87,3.09,27.48,2.92,35.9,0,11.75-4.08-10.82-46.19-18.55-46.19"/><path d="M228.65,283.85h-1.07a3.64,3.64,0,0,0,0-.57,3.73,3.73,0,0,0-.32-1.08,4,4,0,0,0-.27-.5,3.37,3.37,0,0,0-.75-.87,4.82,4.82,0,0,0-.44-.35,2.7,2.7,0,0,0-.5-.27,4.84,4.84,0,0,0-1.09-.32,2.73,2.73,0,0,0-.57,0v-1.07A4.29,4.29,0,0,1,225,279a5.44,5.44,0,0,1,.68.23,5.71,5.71,0,0,1,1.71,1.29,5.79,5.79,0,0,1,.43.58,4.67,4.67,0,0,1,.6,1.31,4.37,4.37,0,0,1,.15.7A6.15,6.15,0,0,1,228.65,283.85Z"/><path d="M228.63,278.22h-1.07v-.59c0-.18,0-.37-.06-.59s-.06-.34-.11-.58a1.16,1.16,0,0,0,0-.18,2.59,2.59,0,0,0-.09-.4c0-.17-.11-.35-.19-.56s-.1-.23-.16-.36l-.08-.18-.06-.12c-.06-.14-.12-.28-.19-.41l-.31-.51c-.1-.15-.19-.26-.29-.4l-.06-.07c-.14-.2-.26-.34-.37-.47a5.31,5.31,0,0,0-.4-.44l-.43-.4-.15-.13-.3-.26-.31-.19-.19-.12-.24-.16a1.78,1.78,0,0,0-.27-.17,3.71,3.71,0,0,0-.53-.26,3,3,0,0,0-.36-.15l-.19-.06-.21-.09-.34-.12a2.62,2.62,0,0,0-.38-.09l-.2,0c-.13,0-.27,0-.41-.06l-.34-.05-.42-.06h-.1l-.5,0h-.88v-1.06h.88l.58,0H220l.51.07.32,0a4.53,4.53,0,0,1,.49.08l.19,0c.15,0,.3.06.47.11a3.89,3.89,0,0,1,.44.16l.18.07.18.06.45.18c.19.09.4.18.6.29a2.92,2.92,0,0,1,.37.24l.18.12.17.11a4.25,4.25,0,0,1,.39.25c.14.1.26.22.38.32l.13.12c.17.14.33.29.5.45s.31.33.45.49.25.31.41.52l.06.07a5.59,5.59,0,0,1,.33.47l.35.57c.09.17.16.33.23.49l.05.11.08.17c.07.14.14.29.2.44l.21.64a4,4,0,0,1,.11.48l0,.17c.05.26.09.47.12.66s.06.46.07.66a3.67,3.67,0,0,1,0,.47A.86.86,0,0,1,228.63,278.22Z"/><path d="M228.65,280.37h-1.06v0a4.71,4.71,0,0,1,0-.65c0-.23.06-.45.1-.67a4.94,4.94,0,0,1,.15-.56l0-.1c.07-.22.15-.43.24-.64s.17-.41.28-.62l.07-.14c.08-.16.17-.31.27-.47a4.94,4.94,0,0,1,.35-.45l.07-.09a5.47,5.47,0,0,1,.47-.5,4.48,4.48,0,0,1,.5-.47,5.6,5.6,0,0,1,.49-.36l.06,0c.21-.13.4-.25.59-.35l.08,0a5.28,5.28,0,0,1,.53-.27l.65-.22.66-.17a6.73,6.73,0,0,1,.67-.1,5.32,5.32,0,0,1,.69,0h1v1.07h-1a5.15,5.15,0,0,0-.58,0l-.58.09-.56.15a5.46,5.46,0,0,0-.54.19,3,3,0,0,0-.44.21l-.08.05a4.71,4.71,0,0,0-.5.3l-.06,0-.41.29a3.88,3.88,0,0,0-.42.39,5.57,5.57,0,0,0-.39.43l-.07.09a3.37,3.37,0,0,0-.29.37,2.08,2.08,0,0,0-.2.36l-.08.14c-.09.18-.17.37-.24.53s-.14.38-.19.54l0,.11c0,.15-.09.3-.12.45a5.58,5.58,0,0,0-.08.57,4.79,4.79,0,0,0,0,.55Z"/><path d="M252.72,308.71H234.37a6.8,6.8,0,0,1-6.78-6.78V260.5h1.06v41.43a5.72,5.72,0,0,0,5.72,5.72h18.35Z"/><path d="M199.42,259.34h-1.07a9.29,9.29,0,0,0-9.28-9.29h-4V249h4A10.37,10.37,0,0,1,199.42,259.34Z"/><path d="M199.42,261.72h-1.07A7.7,7.7,0,0,1,206,254h6.45v1.06H206A6.63,6.63,0,0,0,199.42,261.72Z"/><rect x="198.35" y="248.1" width="1.06" height="41.62"/><path d="M199,275.62a23.57,23.57,0,1,1,21.16-34l-.95.47A22.5,22.5,0,1,0,205,273.75l.28,1A23.9,23.9,0,0,1,199,275.62Z"/><rect x="646.25" y="263.54" width="31.75" height="1.06"/><rect x="606.01" y="289.22" width="62.94" height="1.06"/><path class="cls-2" d="M658.35,222.63c-7.9,0-28.6,41.14-17.35,46.19,6.87,3.09,27.48,2.92,35.9,0,11.75-4.08-10.82-46.19-18.55-46.19"/><path d="M658.89,265.36h-1.07a3.64,3.64,0,0,0,0-.57,3.89,3.89,0,0,0-.32-1.09,4.82,4.82,0,0,0-.27-.5,3,3,0,0,0-.34-.46,2.59,2.59,0,0,0-.41-.4A3.55,3.55,0,0,0,656,262a2.7,2.7,0,0,0-.5-.27,5.45,5.45,0,0,0-1.09-.33l-.57,0V260.3a4.29,4.29,0,0,1,1.42.21,5.44,5.44,0,0,1,.68.23,5.55,5.55,0,0,1,1.71,1.29,5.52,5.52,0,0,1,.78,1.21,5.54,5.54,0,0,1,.25.68,4.37,4.37,0,0,1,.15.7A6.15,6.15,0,0,1,658.89,265.36Z"/><path d="M658.87,259.73H657.8v-.59c0-.18,0-.37-.06-.59s-.06-.35-.11-.58a1.16,1.16,0,0,0,0-.18,2.35,2.35,0,0,0-.09-.4c0-.17-.11-.35-.19-.56a3.64,3.64,0,0,0-.16-.36l-.08-.18-.06-.12c-.06-.14-.12-.28-.19-.41s-.21-.35-.31-.51-.19-.26-.29-.4l-.06-.08c-.14-.19-.26-.33-.37-.47a5.23,5.23,0,0,0-.4-.43l-.43-.4-.15-.13-.3-.26-.31-.2-.19-.12-.24-.15-.27-.18-.53-.26-.36-.14-.19-.07-.21-.08-.34-.12a2.62,2.62,0,0,0-.38-.09l-.2,0a2.7,2.7,0,0,0-.41-.06l-.34,0-.42-.06H650l-.5,0h-.88v-1.06h.88l.58,0h.09l.51.07.32,0a4.53,4.53,0,0,1,.49.08l.19,0c.15,0,.3.06.47.11a3.89,3.89,0,0,1,.44.16l.18.07.18.06.45.18a6.53,6.53,0,0,1,.6.29c.13.07.25.15.37.23l.18.13.17.1a4.4,4.4,0,0,1,.39.26,4,4,0,0,1,.38.32l.13.11.5.45c.16.16.31.34.45.5s.25.31.41.52l.06.07a5.59,5.59,0,0,1,.33.47c.1.17.23.36.35.57a5.4,5.4,0,0,1,.23.49l0,.11.08.17a4.48,4.48,0,0,1,.2.44c.08.24.15.44.21.64a3.58,3.58,0,0,1,.11.48l0,.17c.05.26.09.47.12.65s.06.47.07.67a3.67,3.67,0,0,1,0,.47A.86.86,0,0,1,658.87,259.73Z"/><path d="M658.89,261.88h-1.06v0a4.71,4.71,0,0,1,0-.65c0-.23.06-.45.1-.67a4.94,4.94,0,0,1,.15-.56l0-.1c.07-.22.15-.43.24-.64s.17-.41.28-.62l.07-.14A4.39,4.39,0,0,1,659,258a4.94,4.94,0,0,1,.35-.45l.07-.09a5.47,5.47,0,0,1,.47-.5,3.71,3.71,0,0,1,.5-.47,5.6,5.6,0,0,1,.49-.36l.06,0c.21-.13.4-.25.59-.35l.08,0a5.28,5.28,0,0,1,.53-.27l.65-.22a6.36,6.36,0,0,1,.66-.17l.67-.11.69,0h1V256h-1a5.15,5.15,0,0,0-.58,0l-.58.09-.56.15a5.46,5.46,0,0,0-.54.19,3,3,0,0,0-.44.21l-.08.05a4.71,4.71,0,0,0-.5.3l-.06,0a4.27,4.27,0,0,0-.41.29,3.88,3.88,0,0,0-.42.39,5.57,5.57,0,0,0-.39.43l-.07.09a3.37,3.37,0,0,0-.29.37,2.08,2.08,0,0,0-.2.36l-.08.14c-.09.18-.17.36-.24.53s-.14.38-.19.54l0,.11c0,.15-.09.3-.12.45a5.58,5.58,0,0,0-.08.57,4.7,4.7,0,0,0,0,.54Z"/><path d="M683,290.22H664.61a6.8,6.8,0,0,1-6.78-6.78V242h1.06v41.43a5.72,5.72,0,0,0,5.72,5.72H683Z"/><path d="M629.66,240.85h-1.07a9.29,9.29,0,0,0-9.28-9.29h-4V230.5h4A10.37,10.37,0,0,1,629.66,240.85Z"/><path d="M629.66,243.23h-1.07a7.7,7.7,0,0,1,7.69-7.68h6.45v1.06h-6.45A6.62,6.62,0,0,0,629.66,243.23Z"/><rect x="628.59" y="229.61" width="1.06" height="41.62"/><path d="M629.25,257.13a23.57,23.57,0,1,1,21.16-33.95l-.95.47a22.5,22.5,0,1,0-14.2,31.6l.28,1A23.9,23.9,0,0,1,629.25,257.13Z"/><rect x="896.51" y="311.62" width="31.75" height="1.06"/><rect x="856.27" y="337.3" width="62.94" height="1.06"/><path class="cls-2" d="M908.61,270.71c-7.9,0-28.61,41.14-17.35,46.19,6.87,3.09,27.48,2.92,35.89,0,11.76-4.08-10.82-46.19-18.55-46.19"/><path d="M909.14,313.44h-1.06a3.66,3.66,0,0,0-.05-.57,4.12,4.12,0,0,0-.31-1.09,3.53,3.53,0,0,0-.28-.5,2.88,2.88,0,0,0-.74-.86,3.94,3.94,0,0,0-.45-.36,4.82,4.82,0,0,0-.5-.27,5.92,5.92,0,0,0-1.09-.32,5.44,5.44,0,0,0-.57,0v-1.06a4.28,4.28,0,0,1,1.42.2,5.49,5.49,0,0,1,.68.24,5.72,5.72,0,0,1,1.72,1.29,6.22,6.22,0,0,1,.43.58,4.77,4.77,0,0,1,.34.63,4.28,4.28,0,0,1,.25.68,4.15,4.15,0,0,1,.15.7A4.62,4.62,0,0,1,909.14,313.44Z"/><path d="M909.12,307.81h-1.06v-.59c0-.18,0-.37-.07-.59s-.06-.35-.1-.58a1.16,1.16,0,0,1,0-.18c0-.14-.06-.28-.09-.4s-.11-.35-.19-.56l-.16-.36-.09-.18-.05-.12c-.07-.15-.13-.28-.2-.41s-.21-.35-.31-.51a4.1,4.1,0,0,0-.29-.4l-.06-.08-.36-.47-.4-.43c-.14-.14-.29-.27-.44-.4l-.14-.13-.31-.26a2.36,2.36,0,0,0-.31-.2l-.19-.12-.23-.15-.27-.18-.53-.26-.36-.14-.2-.07-.21-.08-.34-.13-.37-.08-.21,0-.4-.07-.35,0a3,3,0,0,0-.42-.06h-.1l-.49,0h-.89v-1.06h.89l.57,0h.1l.5.06.32,0a4.71,4.71,0,0,1,.5.08l.18,0,.47.1a3.34,3.34,0,0,1,.44.17l.19.07.17.06.45.18a6.53,6.53,0,0,1,.6.29l.38.23.18.13.17.1c.12.08.26.16.39.26l.38.32.13.11c.16.15.33.29.49.45s.31.34.45.49a5.18,5.18,0,0,1,.41.53l.06.07a4,4,0,0,1,.33.47c.1.17.24.36.35.57s.17.33.24.49l0,.11.07.17a4.48,4.48,0,0,1,.2.44,6.61,6.61,0,0,1,.21.63c.06.2.08.33.12.49l0,.17a5.43,5.43,0,0,1,.12.65c0,.25.06.47.08.67s0,.32,0,.46A1.86,1.86,0,0,1,909.12,307.81Z"/><path d="M909.15,310h-1.07v0c0-.22,0-.43,0-.65s0-.45.09-.68.1-.37.15-.55l0-.11a5.47,5.47,0,0,1,.23-.64c.08-.18.17-.4.29-.62l.07-.13a4.31,4.31,0,0,1,.26-.47,5.37,5.37,0,0,1,.35-.45l.07-.09a5.56,5.56,0,0,1,.47-.5,5.47,5.47,0,0,1,.5-.47,5.74,5.74,0,0,1,.5-.36l.06,0a5.26,5.26,0,0,1,.58-.35l.08,0a5.28,5.28,0,0,1,.53-.27,6.19,6.19,0,0,1,.65-.22c.22-.07.44-.12.66-.17l.68-.11c.22,0,.45,0,.68,0h1V304h-1a3.51,3.51,0,0,0-.58,0l-.57.09a5.27,5.27,0,0,0-.56.15,5.09,5.09,0,0,0-.55.18l-.44.22-.08,0-.49.3-.06,0a4.85,4.85,0,0,0-.41.3,5.22,5.22,0,0,0-.43.39,5.57,5.57,0,0,0-.39.43l-.07.09c-.1.11-.2.24-.29.36s-.14.24-.2.37l-.08.14a4,4,0,0,0-.23.53c-.08.2-.15.37-.2.54l0,.11a3.74,3.74,0,0,0-.12.45,5.62,5.62,0,0,0-.09.57c0,.17,0,.35,0,.54Z"/><path d="M933.21,338.3H914.86a6.8,6.8,0,0,1-6.78-6.78V290.09h1.06v41.43a5.72,5.72,0,0,0,5.72,5.72h18.35Z"/><path d="M879.91,288.93h-1.06a9.3,9.3,0,0,0-9.28-9.29h-4v-1.06h4A10.36,10.36,0,0,1,879.91,288.93Z"/><path d="M879.91,291.31h-1.06a7.68,7.68,0,0,1,7.68-7.68H893v1.06h-6.46A6.62,6.62,0,0,0,879.91,291.31Z"/><rect x="878.85" y="277.69" width="1.06" height="41.62"/><path d="M879.5,305.2a23.57,23.57,0,1,1,21.17-33.94l-1,.47a22.49,22.49,0,1,0-14.2,31.6l.28,1A23,23,0,0,1,879.5,305.2Z"/><rect x="721.28" y="462.58" width="68.18" height="2.71"/><path d="M485.77,696.93h-2.71v-9.16a10.4,10.4,0,0,1,10.39-10.4h8.21a9.58,9.58,0,0,1,9.58,9.55v10h-2.72v-10a6.83,6.83,0,0,0-6.83-6.83h-8.21a7.68,7.68,0,0,0-7.68,7.68Z"/><path d="M245,815.77h-2.71V776.68a10.4,10.4,0,0,1,10.39-10.4h8.21a9.59,9.59,0,0,1,9.55,9.56v38.9h-2.71V775.86a6.85,6.85,0,0,0-6.84-6.84h-8.21a7.68,7.68,0,0,0-7.68,7.66Z"/><path d="M653.86,688.36h-5.92a6,6,0,0,1-6-6v-8.59h2.71v8.59a3.25,3.25,0,0,0,3.25,3.24h5.92Z"/><rect x="656.4" y="682.27" width="2.71" height="14.58"/><rect x="646.79" y="686.94" width="2.71" height="6.01"/><path class="cls-9" d="M899.13,754.26h16a7.79,7.79,0,0,1,7.79,7.79v21H891.38V762A7.79,7.79,0,0,1,899.13,754.26Z"/><path d="M907.72,750.45H901.8a6,6,0,0,1-6-6v-7.08h2.76v7.08a3.24,3.24,0,0,0,3.24,3.24h5.92Z"/><rect x="910.27" y="740.53" width="2.71" height="18.41"/><rect x="900.65" y="749.03" width="2.71" height="6.01"/><rect x="367.62" y="513.66" width="48.6" height="2.71"/><rect x="545.61" y="625.4" width="2.71" height="15.05"/><polygon points="547.03 642.74 541.23 636.94 543.15 635.02 547.03 638.91 550.86 635.08 552.78 637 547.03 642.74"/><rect x="818.67" y="504.47" width="145.78" height="2.71"/><path d="M951.92,781.61l-2.7-.23,4.53-53.31a7.19,7.19,0,0,0-.27-3.29,7.29,7.29,0,0,0-6.88-4.9H927.76a8.14,8.14,0,0,0-8,6.33,7.22,7.22,0,0,0-.06,2.7V729l2,22.37-2.71.23-2-22.32a9.79,9.79,0,0,1,.11-3.66,10.83,10.83,0,0,1,10.61-8.44h18.83a10,10,0,0,1,9.44,6.71,9.69,9.69,0,0,1,.41,4.5Z"/><path d="M661,759.52H641.58a5.55,5.55,0,0,1-5.54-5l-4.55-46.73a10.06,10.06,0,0,1,.11-3.67,10.82,10.82,0,0,1,10.61-8.44h18.84a10,10,0,0,1,9.45,6.74,9.79,9.79,0,0,1,.41,4.53l-4.35,47.56A5.53,5.53,0,0,1,661,759.52Zm-18.8-61.15a8.14,8.14,0,0,0-8,6.33,7.21,7.21,0,0,0-.06,2.7v.06l4.56,46.77a2.82,2.82,0,0,0,2.83,2.57H661a2.83,2.83,0,0,0,2.84-2.59l4.34-47.61a7.11,7.11,0,0,0-5.91-8.14,6.37,6.37,0,0,0-1.23-.09Z"/><path d="M937.72,710.57H931.8a6,6,0,0,1-5.95-6v-.09l.49-7,2.71.19-.49,7a3.24,3.24,0,0,0,3.24,3.2h5.92Z"/><rect x="940.87" y="704.76" width="2.71" height="14.3"/><rect x="931.26" y="709.15" width="2.71" height="6.01"/><path d="M914.47,741l-2.62-.69a8.45,8.45,0,0,0-16.28-4.57l-.06.25-2.63-.7A11.17,11.17,0,0,1,914.45,741Z"/><rect x="897.51" y="722.1" width="2.71" height="29.51" transform="translate(-43.15 1417.67) rotate(-75.2)"/><path d="M49.58,669.39a13.05,13.05,0,0,1-5.74-1.12,3.12,3.12,0,0,1-1.94-2.7v-.71a3.56,3.56,0,0,0,0-.86,5.42,5.42,0,0,1-.14-.7,52.13,52.13,0,0,1,0-7.07c.23-1.14.36-1.87.45-2.45a20.94,20.94,0,0,1,1.62-5.24,12.48,12.48,0,0,1,2.15-3.31c2.17-4.19,8.23-5.22,12.68-6a14.58,14.58,0,0,1,6.91.44c4,1.25,5.61,4.47,5.44,7.08-.2,3.08-2.59,5.46-6.07,6.07l-1.28.28a41.93,41.93,0,0,1-7.33.88H56a.5.5,0,0,0-.44.49v2.32c0,.36.23,1.79.43,3.11.33,2.08.7,4.45.76,5.9h0a2.63,2.63,0,0,1-1.42,2.39A12.09,12.09,0,0,1,49.58,669.39Zm-1.66-22.33a10.58,10.58,0,0,0-1.62,2.46,17.8,17.8,0,0,0-1.47,4.72c-.09.57-.23,1.35-.47,2.53-.11.71-.08,5.45,0,6.09a4.13,4.13,0,0,0,.1.47,5.43,5.43,0,0,1,.11,1.45v.7c0,.13.66.72,2.7,1,3.12.49,6.16-.17,6.73-.72-.06-1.31-.42-3.6-.71-5.46a32.17,32.17,0,0,1-.47-3.53v-2.33a3.21,3.21,0,0,1,3-3.2h.27a42,42,0,0,0,6.88-.82l1.33-.3c2.73-.47,3.79-2.15,3.88-3.59s-.78-3.45-3.54-4.32a11.73,11.73,0,0,0-5.58-.36c-4,.71-9.34,1.65-10.79,4.73l-.14.28Zm0,0"/><path d="M658.21,683.63h-.12a4.37,4.37,0,0,1-4.37-4.36V677a.49.49,0,0,0-.45-.49H653a43.94,43.94,0,0,1-7.33-.88l-1.34-.3c-3.42-.6-5.8-3-6-6-.17-2.62,1.44-5.83,5.44-7.09a14.55,14.55,0,0,1,17.46,7.57c1,1.61,1.27,6.08,1.31,7.11h0v2.46A4.37,4.37,0,0,1,658.21,683.63Zm-10.09-19.45a11.65,11.65,0,0,0-3.52.54c-2.77.87-3.65,2.87-3.55,4.32s1.15,3.1,3.82,3.57l1.39.3a40.9,40.9,0,0,0,6.88.82h.27a3.2,3.2,0,0,1,3,3.21v2.32a1.65,1.65,0,0,0,1.65,1.65h.12a1.65,1.65,0,0,0,1.66-1.65h0v-2.62a30.44,30.44,0,0,0-.81-5.32l-.08-.07-.14-.29a11.86,11.86,0,0,0-10.7-6.76Z"/><path d="M500,657a6.88,6.88,0,0,1-5.23-2.54,2.16,2.16,0,0,0-3.05-.21,2.2,2.2,0,0,0-.54.71,3.26,3.26,0,0,1-3.22,2h-.21a3.28,3.28,0,0,1-3-4,11.94,11.94,0,0,1,22.34-2.45,4.46,4.46,0,0,1-3.92,6.37l-3,.09Zm-6.88-6a4.83,4.83,0,0,1,3.73,1.72,4.21,4.21,0,0,0,3.26,1.58l3-.08a1.78,1.78,0,0,0,1.46-.85,1.71,1.71,0,0,0,.09-1.64,9.23,9.23,0,0,0-17.24,1.86.54.54,0,0,0,.09.44.6.6,0,0,0,.43.23h.2a.58.58,0,0,0,.53-.39,4.87,4.87,0,0,1,4.46-2.9Z"/><path d="M265.68,747.47l-2.63-.7a8.45,8.45,0,0,0-16.27-4.57c0,.09-.05.17-.07.25l-2.62-.68a11.16,11.16,0,1,1,21.83,4.67,9.17,9.17,0,0,1-.27,1Z"/><rect x="248.74" y="728.59" width="2.71" height="29.51" transform="translate(-532.47 795.26) rotate(-75.2)"/><path d="M279.15,817.45H234.32a17.19,17.19,0,0,1-12.26-5.07l-2.17-2.16,1.91-1.92,2.18,2.18a14.54,14.54,0,0,0,10.34,4.28h44.83a14.54,14.54,0,0,0,10.34-4.28l2.11-2.11,1.91,1.92-2.1,2.11A17.23,17.23,0,0,1,279.15,817.45Z"/><path d="M942.23,707.27h-.12a4.36,4.36,0,0,1-4.37-4.36V700.6a.49.49,0,0,0-.45-.5H937a42.91,42.91,0,0,1-7.33-.88l-1.34-.29c-3.43-.6-5.81-3-6-6-.17-2.63,1.44-5.83,5.44-7.09a14.54,14.54,0,0,1,17.45,7.56c1,1.61,1.28,6.09,1.32,7.12h0v2.45A4.36,4.36,0,0,1,942.23,707.27Zm-10.12-19.45a11.59,11.59,0,0,0-3.51.54c-2.77.87-3.65,2.87-3.55,4.32s1.15,3.1,3.82,3.59l1.39.3a38.93,38.93,0,0,0,6.88.82h.27a3.21,3.21,0,0,1,3,3.21v2.31a1.65,1.65,0,0,0,1.65,1.65h.12a1.67,1.67,0,0,0,1.66-1.65v-2.65a29.67,29.67,0,0,0-.82-5.32l-.08-.07-.14-.29a11.85,11.85,0,0,0-8.65-6.58A11.55,11.55,0,0,0,932.11,687.82Z"/><path d="M490.22,663.78v-6.72a6.89,6.89,0,0,1,1.72-4.56,3.43,3.43,0,0,0-2.05,1.88,1.93,1.93,0,0,1-1.88,1.2h-.21l-.16,0a9.64,9.64,0,0,0-.13,1.52v6.72a6,6,0,0,0,4.79,5.84v4.71H495v-4.59h4.36v-2.7h-5.92a3.25,3.25,0,0,1-3.23-3.26Z"/><path d="M503.11,655.52l-1.24,0q.06.6.06,1.2v21.5h2.72V656.73a14.35,14.35,0,0,0-.1-1.61A3,3,0,0,1,503.11,655.52Z"/><polygon points="804.34 687.04 807.05 687.04 807.05 560.66 696.96 560.66 696.96 620.5 699.68 620.5 699.68 563.38 804.34 563.38 804.34 687.04"/><path d="M260.58,746.13a8.32,8.32,0,0,1,.65,3.23v17.82h2.71V749.34a11.29,11.29,0,0,0-.26-2.39Z"/><path d="M249.49,752.72v-8.59a3,3,0,0,1,.13-.9l-2.62-.7a6.17,6.17,0,0,0-.22,1.6v8.59a6,6,0,0,0,4.79,5.84v4.7h2.71v-4.59h4.36V756h-5.9A3.25,3.25,0,0,1,249.49,752.72Z"/><path d="M54.58,653.39a1.93,1.93,0,0,0-.37,1.08v1.13A8.74,8.74,0,0,1,54.58,653.39Z"/><path d="M65.89,651.16v8.7a3.23,3.23,0,0,1-3.21,3.24L55.19,663v.74c.1.75.17,1.43.2,2l5.71.13v4.62h2.72V665.7a6,6,0,0,0,4.79-5.84v-9.19a5.84,5.84,0,0,0-.14-1.25A5.81,5.81,0,0,1,65.89,651.16Z"/><path d="M51.52,667.93v6.4h2.71v-7.08A9.07,9.07,0,0,1,51.52,667.93Z"/><rect x="24.52" y="683.26" width="2.71" height="31.11"/><rect x="14.65" y="683.26" width="2.71" height="56.61"/><rect x="129.59" y="683.26" width="2.71" height="56.61"/><rect x="139.78" y="683.26" width="2.71" height="56.61"/><rect x="11.06" y="673.35" width="20.85" height="2.71"/><rect x="11.06" y="674.09" width="2.71" height="10.36"/><rect x="29.2" y="674.09" width="2.71" height="10.36"/><rect x="125.79" y="673.35" width="20.85" height="2.71"/><rect x="125.79" y="674.09" width="2.71" height="10.36"/><rect x="143.92" y="674.09" width="2.71" height="10.36"/><path d="M1045.45,487.06c-3.07-22-6.73-41.28-20.56-54.86-8-7.9-21.34-12.07-33.12-10.38-8.64,1.23-15.29,5.47-18.74,11.93-.48.9-1,1.87-1.49,2.87-3.52,6.85-7.51,14.61-13.15,16.08a7.89,7.89,0,0,1-6.33-1.13,12.83,12.83,0,0,1-4-4.51c-7.91-13-10.3-28.1-12.61-42.68-1.36-8.62-2.78-17.53-5.31-25.91-4.45-14.7-15.83-28.52-28.31-34.38-7.84-3.69-15.91-4.2-23.32-1.47-15.67,5.77-22.21,23.1-26.94,41L835,446c-2.68,10.13-7.71,15.52-14,15.14-3.72-.22-6.75-2.55-8.7-4.29-11.85-10.55-16.51-26.63-20.26-39.56-3.64-12.57-8.18-28.21-19.5-38.21a33.66,33.66,0,0,0-23.94-8c-4.42.31-10.61,1.79-15,7.05-2.35,2.81-3.77,6.14-5.28,9.67a54.43,54.43,0,0,1-4,8,18.89,18.89,0,0,1-11.5,8.12,10.75,10.75,0,0,1-8.17-1.42,15.61,15.61,0,0,1-4.74-5.68c-7.07-12.59-9.26-26.9-11.38-40.74-1.42-9.25-2.89-18.82-5.8-27.77-4.69-14.39-16.54-27.55-29.51-32.74-8.1-3.25-16.15-3.15-23.26.28-7.38,3.56-12.28,9.94-17.47,16.69-4.09,5.32-8.32,10.83-13.91,14.89-7.69,5.58-17.32,8-26.63,10.37-11,2.78-21.41,5.4-28.65,12.79-3.88,4-6.75,9.26-9.53,14.39-4.82,8.89-9.81,18.08-20.24,20.26-10.11,2.12-18.78-3.84-27.16-9.61-7.46-5.12-15.19-10.43-23.64-9.73-5.36.43-10.84,3.42-15.44,8.41C437.12,385.39,434.62,401,432.94,416l-.12,1.06c-1.68,15-3.42,30.57-12.69,42.95a38,38,0,0,1-24.69,14.3c-7.33.95-13.94-.63-19.11-4.59-6.7-5.14-9.81-13.35-12.3-19.95l-13.28-35.13c-4.38-11.58-11.8-27.12-25.7-28.38-12.78-1.15-21.08,9.34-29.86,20.46a137.6,137.6,0,0,1-9.71,11.44c-1.88,1.91-4.8,4.42-8.44,4.05s-5.89-3.27-7.35-5.44c-9-13.45-11.55-29.61-14-45.24l-.25-1.62c-2.58-16.57-5.73-32.46-15.8-44.88-9.57-11.79-28.82-19.66-43.25-11.81-6.18,3.36-10.43,8.8-14.92,14.56a86.46,86.46,0,0,1-9.21,10.55c-9,8.32-21.33,12.72-33.25,17-15.16,5.42-29.49,10.53-36.78,23a65.23,65.23,0,0,0-3.45,7.19c-2.56,5.89-5.2,12-11.21,15.23-10.34,5.59-20.5-1-30.33-7.48-5.12-3.34-10.42-6.8-15.75-8.61a24,24,0,0,0-19.94,2.13c-8.17,4.65-14.35,13.45-15.73,22.42l-2.94-.41c1.5-9.77,8.23-19.36,17.14-24.42A26.86,26.86,0,0,1,42.52,382C48.22,384,53.68,387.54,59,391c9.5,6.2,18.46,12.06,27.18,7.35,5.12-2.76,7.45-8.15,9.93-13.86a68.63,68.63,0,0,1,3.6-7.49c7.82-13.38,23.33-18.92,38.33-24.27,11.63-4.16,23.66-8.46,32.22-16.36a83.47,83.47,0,0,0,8.9-10.22c4.48-5.73,9.11-11.66,15.83-15.32,16-8.72,36.53-.47,47.08,12.54s13.75,29.23,16.39,46.18l.25,1.62c2.38,15.34,4.84,31.2,13.54,44.14,1.13,1.68,2.89,3.93,5.14,4.15,1.77.19,3.67-.83,6-3.17a135.14,135.14,0,0,0,9.5-11.2c8.89-11.26,18.09-22.93,32.52-21.58,15.58,1.42,23.57,17.93,28.22,30.23l13.28,35.13c2.37,6.27,5.32,14.07,11.37,18.71,5.7,4.36,12.3,4.57,16.84,4a34.86,34.86,0,0,0,22.67-13.14c8.82-11.77,10.51-26.95,12.15-41.62l.12-1.06c1.73-15.49,4.33-31.59,15.09-43.28,5.1-5.54,11.29-8.87,17.42-9.37,9.58-.78,17.75,4.84,25.64,10.27,8.22,5.65,16,11,24.78,9.14,9.07-1.91,13.52-10.12,18.23-18.81,2.87-5.29,5.84-10.77,10-15,7.82-8,19.12-10.83,30.05-13.59,9-2.28,18.37-4.64,25.59-9.88,5.25-3.81,9.35-9.16,13.32-14.32,5.16-6.72,10.5-13.67,18.52-17.54s16.82-3.95,25.77-.36c13.73,5.5,26.26,19.36,31.19,34.5,3,9.16,4.46,18.84,5.9,28.2,2.08,13.6,4.24,27.66,11.06,39.82a13.13,13.13,0,0,0,3.82,4.69,7.63,7.63,0,0,0,5.86,1,16.05,16.05,0,0,0,9.57-6.84,51.31,51.31,0,0,0,3.74-7.58c1.53-3.56,3.1-7.24,5.71-10.36,4-4.79,9.93-7.6,17.12-8.11a36.87,36.87,0,0,1,26.19,8.78c11.93,10.55,16.59,26.62,20.34,39.53,3.65,12.58,8.19,28.25,19.43,38.25,1.61,1.44,4.08,3.37,6.84,3.53,6.74.35,9.91-9,11-13l16.52-62.46c4.92-18.6,11.81-36.67,28.75-42.9,8.21-3,17.1-2.48,25.71,1.57C916.52,347.85,928.24,362,933,377.7c2.59,8.55,4,17.55,5.39,26.26,2.27,14.33,4.61,29.14,12.25,41.7a10.3,10.3,0,0,0,3.07,3.56,4.84,4.84,0,0,0,3.91.77c4.35-1.14,8.19-8.6,11.27-14.6.52-1,1-2,1.51-2.91,3.89-7.3,11.33-12.07,20.94-13.45,12.68-1.8,27,2.69,35.71,11.21,14.46,14.2,18.23,34,21.37,56.46Z"/><path class="cls-10" d="M846.43,62.64V7.88c0-2.94-2.86-5.33-6.36-5.33H767c-3.51,0-6.35,2.39-6.37,5.33V55.07h.17V87.55h-.17v26.23h85.81V79.67l4.19-6.51Z"/><path class="cls-4" d="M855.73,90V77.13a3.42,3.42,0,0,0-3.51-3.33V72.7a4.73,4.73,0,0,1,3.51,1.52V72.3a7.24,7.24,0,0,0-7.41-7h-3.25v-1.1h3.25a8.66,8.66,0,0,1,7.41,4v-4.6h1.16v7a6.53,6.53,0,0,1,5.25-2.59h8.6v1.1h-8.6a5.12,5.12,0,0,0-5.25,5h0V90c13.51-.31,24.21-10.93,23.88-23.72s-11.53-22.92-25-22.61-24.2,10.92-23.88,23.71c.31,12.37,10.82,22.32,23.88,22.62Z"/><rect class="cls-11" x="788.8" y="42.95" width="1.16" height="7.71"/><polygon class="cls-11" points="818.22 62.4 812.53 62.4 812.53 62.42 819.38 62.42 819.38 42.95 818.22 42.95 818.22 62.4"/><rect class="cls-11" x="788.8" y="41.83" width="30.58" height="0.02"/><polygon class="cls-11" points="795.93 62.4 789.96 62.4 789.96 51.76 788.8 51.76 788.8 57.73 789.51 57.73 789.51 58.83 788.8 58.83 788.8 62.42 795.93 62.42 795.93 62.4"/><polygon class="cls-11" points="786.78 41.85 804.3 13.1 821.83 41.85 819.38 41.85 819.38 42.95 823.84 42.95 804.3 10.91 784.77 42.95 788.8 42.95 788.8 41.85 786.78 41.85"/><rect class="cls-11" x="789.96" y="42.93" width="28.26" height="0.02"/><polygon class="cls-11" points="789.96 42.93 818.22 42.93 818.22 42.95 819.38 42.95 819.38 41.85 788.8 41.85 788.8 42.95 789.96 42.95 789.96 42.93"/><path class="cls-11" d="M783,66.84a3.42,3.42,0,0,1,3.52-3.33h35.1a3.42,3.42,0,0,1,3.52,3.33v9.82h1.16V78l16.37,15.5a11.18,11.18,0,0,1,3.56,8.13v2.85h1.17v-2.86a12.19,12.19,0,0,0-3.89-8.91L826.34,76.44v-9.6a4.58,4.58,0,0,0-4.69-4.43h-2.26v1.08H788.8V62.41h-2.26a4.57,4.57,0,0,0-4.68,4.43v5.73H783Z"/><path class="cls-11" d="M761.93,101.62a11.18,11.18,0,0,1,3.56-8.13L783,76.89V73.67h-1.16v2.77L764.67,92.71a12.19,12.19,0,0,0-3.89,8.91v12.73h1.16Z"/><polygon class="cls-11" points="819.38 63.5 819.38 62.42 812.53 62.42 812.53 63.45 795.93 63.45 795.93 62.42 788.8 62.42 788.8 63.5 819.38 63.5"/><path class="cls-11" d="M797.1,101.77A6.92,6.92,0,0,1,803.65,95v-1.1a8,8,0,0,0-7.7,7.84v12.58h1.16Z"/><path class="cls-11" d="M811.37,101.77v12.71h-4v1H796v.14h16.59V101.77a8,8,0,0,0-7.72-7.84V95A6.92,6.92,0,0,1,811.37,101.77Z"/><path class="cls-11" d="M812.53,54.87A8.08,8.08,0,0,0,804.22,47,8.38,8.38,0,0,0,797,51.08v.69h-.36a7.61,7.61,0,0,0-.68,3.11v7.51h16.6ZM797.1,62.35V54.87a7.15,7.15,0,0,1,14.27-.26v7.74Z"/><rect class="cls-11" x="795.93" y="62.39" width="16.6" height="0.02"/><rect class="cls-11" x="795.93" y="62.42" width="16.6" height="1.03"/><path class="cls-11" d="M804.81,93.94V90.4h-1.16v3.54c.2,0,.39,0,.58,0A5.49,5.49,0,0,1,804.81,93.94Z"/><path class="cls-11" d="M804.81,114.35V95a5.49,5.49,0,0,0-.58,0,3.76,3.76,0,0,0-.58,0v19.31Z"/><path class="cls-11" d="M804.23,95a3.69,3.69,0,0,1,.58,0v-1.1c-.19,0-.38,0-.58,0a3.76,3.76,0,0,0-.58,0V95Z"/><polygon class="cls-11" points="865.59 114.79 865.59 114.35 865.29 114.35 865.29 115.45 899.97 115.45 899.97 114.35 881.88 114.35 881.88 114.89 880.72 114.89 880.72 114.35 866.75 114.35 866.75 114.79 865.59 114.79"/><path class="cls-11" d="M872,102.72h.83v-1.1H872a6.48,6.48,0,0,0-5.22,2.57v3.47A5.1,5.1,0,0,1,872,102.72Z"/><path class="cls-11" d="M865.6,107.66h0a5.81,5.81,0,0,1,1.16-3.46v-2.85H865.6v1.86a10.25,10.25,0,0,0-8.71-5.15v1.1A8.76,8.76,0,0,1,865.6,107.66Z"/><path class="cls-11" d="M866.75,107.66h0v-3.47a5.81,5.81,0,0,0-1.16,3.46Z"/><path class="cls-11" d="M866.76,101.35a8.78,8.78,0,0,1,9-8.52V91.74a9.9,9.9,0,0,0-10.15,9.61Z"/><path class="cls-11" d="M865.6,107.66h0v6.69h1.16v-6.68H865.6Z"/><rect class="cls-11" x="865.59" y="114.35" width="1.16" height="0.44"/><path class="cls-11" d="M865.6,107.66Z"/><rect class="cls-11" x="775.22" y="57.73" width="13.58" height="1.1"/><rect class="cls-11" x="788.8" y="57.73" width="0.71" height="1.1"/><polygon class="cls-11" points="838.11 114 836.83 114 836.83 111.83 835.67 111.83 835.67 115.1 839.27 115.1 839.27 111.83 838.11 111.83 838.11 114"/><polygon class="cls-11" points="846.96 114 845.67 114 845.67 111.83 844.51 111.83 844.51 115.1 848.12 115.1 848.12 111.83 846.96 111.83 846.96 114"/><rect class="cls-11" x="839.27" y="110.67" width="5.24" height="0.07"/><polygon class="cls-11" points="846.25 104.81 846.25 104.47 834.01 104.47 834.01 110.74 835.67 110.74 835.67 110.67 835.17 110.67 835.17 109.5 834.67 109.5 834.67 108.4 835.17 108.4 835.17 107.5 834.67 107.5 834.67 106.41 835.17 106.41 835.17 105.57 848.76 105.57 848.76 106.41 849.09 106.41 849.09 107.5 848.76 107.5 848.76 108.4 849.09 108.4 849.09 109.5 848.76 109.5 848.76 110.67 848.12 110.67 848.12 110.74 849.92 110.74 849.92 104.47 847.4 104.47 847.4 104.81 846.25 104.81"/><rect class="cls-11" x="846.25" y="104.47" width="1.16" height="0.34"/><rect class="cls-11" x="835.67" y="110.67" width="3.61" height="0.07"/><rect class="cls-11" x="844.51" y="110.67" width="3.61" height="0.07"/><polygon class="cls-11" points="834.01 111.77 834.01 110.74 832.94 110.74 832.94 107.95 831.78 107.95 831.78 111.83 835.67 111.83 835.67 111.77 834.01 111.77"/><rect class="cls-11" x="839.27" y="111.77" width="5.24" height="0.07"/><polygon class="cls-11" points="848.12 111.77 848.12 111.83 852.01 111.83 852.01 107.95 850.85 107.95 850.85 110.74 849.92 110.74 849.92 111.77 848.12 111.77"/><rect class="cls-11" x="836.83" y="111.77" width="1.29" height="0.07"/><rect class="cls-11" x="845.67" y="111.77" width="1.29" height="0.07"/><rect class="cls-11" x="838.11" y="111.77" width="1.16" height="0.07"/><rect class="cls-11" x="835.67" y="111.77" width="1.16" height="0.07"/><rect class="cls-11" x="846.96" y="111.77" width="1.16" height="0.07"/><rect class="cls-11" x="844.51" y="111.77" width="1.16" height="0.07"/><rect class="cls-11" x="839.27" y="110.74" width="5.24" height="1.03"/><rect class="cls-11" x="834.01" y="110.74" width="1.65" height="1.03"/><rect class="cls-11" x="848.12" y="110.74" width="1.8" height="1.03"/><polygon class="cls-11" points="836.83 111.77 838.11 111.77 839.27 111.77 839.27 110.74 835.67 110.74 835.67 111.77 836.83 111.77"/><polygon class="cls-11" points="844.51 111.77 845.67 111.77 846.96 111.77 848.12 111.77 848.12 110.74 844.51 110.74 844.51 111.77"/><rect class="cls-11" x="835.17" y="106.4" width="13.59" height="1.1"/><rect class="cls-11" x="848.76" y="106.4" width="0.32" height="1.1"/><rect class="cls-11" x="834.68" y="106.4" width="0.49" height="1.1"/><rect class="cls-11" x="835.17" y="108.4" width="13.59" height="1.1"/><rect class="cls-11" x="834.68" y="108.4" width="0.49" height="1.1"/><rect class="cls-11" x="848.76" y="108.4" width="0.32" height="1.1"/><rect class="cls-11" x="804.96" y="6.06" width="3.04" height="1.57"/><rect class="cls-11" x="800.25" y="6.06" width="3.04" height="1.57"/><rect class="cls-11" x="803.3" y="7.63" width="1.66" height="4.7"/><rect class="cls-11" x="803.3" y="1.35" width="1.66" height="4.7"/><rect class="cls-11" x="803.3" y="6.06" width="1.66" height="1.57"/><path class="cls-11" d="M884.81,107.85v-1.1a4.18,4.18,0,0,0-2.92,1.17v2.69A2.85,2.85,0,0,1,884.81,107.85Z"/><path class="cls-11" d="M880.73,98.2v1.53a5.08,5.08,0,0,1,1.16,2.27V98.2Z"/><path class="cls-11" d="M881.89,107.92v-1.11h-1.16a5.82,5.82,0,0,1,.61-2.58l-.05-.07-.49,0h-.07v3a6.45,6.45,0,0,0-5.18-2.55v1.1a5.07,5.07,0,0,1,5.18,4.91h0A3.69,3.69,0,0,1,881.89,107.92Z"/><path class="cls-11" d="M880.8,103.09h0a4.49,4.49,0,0,0-.11-1v1Z"/><path class="cls-11" d="M881.88,110.61h0v-2.69a3.73,3.73,0,0,0-1.16,2.69Z"/><path class="cls-11" d="M881.89,104.37v2.43h0a5.06,5.06,0,0,1,5.18-4.91V100.8a6.59,6.59,0,0,0-2.87.65A8.37,8.37,0,0,1,881.89,104.37Z"/><path class="cls-11" d="M881.63,104.58l-.29-.35a5.82,5.82,0,0,0-.61,2.58h1.16v-2.43A2.26,2.26,0,0,0,881.63,104.58Z"/><path class="cls-11" d="M881.88,110.61h-1.16v3.75h1.16Z"/><rect class="cls-11" x="880.72" y="114.35" width="1.16" height="0.54"/><path class="cls-11" d="M878.72,98.05a7,7,0,0,1,2.56-5.39,7,7,0,0,1,.71,10.08v.48a6.25,6.25,0,0,1,2.21-1.76,8,8,0,0,0-2.58-9.94l-.36-.27-.36.27A8.11,8.11,0,0,0,877.56,98a5.86,5.86,0,0,1,1.15.35Z"/><path class="cls-11" d="M881.29,104.16l.05.07s0,0,0-.07Z"/><path class="cls-11" d="M882,103.22c0,.15,0,.31,0,.46l-.06.43h0v.27a8.51,8.51,0,0,0,2.32-2.92A6.25,6.25,0,0,0,882,103.22Z"/><path class="cls-11" d="M881.89,104.37v-.27l-.44.05h-.07a.59.59,0,0,1,0,.08l.29.34Z"/><path class="cls-11" d="M877.75,101.89h0A3.93,3.93,0,0,1,876.49,99a4.3,4.3,0,0,1,4.24,3.17v-2.4c-.11-.12-.22-.24-.33-.34a5.52,5.52,0,0,0-1.68-1.09v.43h-1.16V98a6,6,0,0,0-1.69-.06l-.45,0-.06.43a5,5,0,0,0,1.57,4.29h0a5.6,5.6,0,0,0,3.79,1.51v-1.09A4.44,4.44,0,0,1,877.75,101.89Z"/><path class="cls-11" d="M881.89,102v.85l.1-.12A5.83,5.83,0,0,0,881.89,102Z"/><path class="cls-11" d="M881.29,104.16l-.38-.45a7.35,7.35,0,0,0,1-.87V102a5.13,5.13,0,0,0-1.16-2.27v2.4a4.49,4.49,0,0,1,.11,1h-.11v1.09h.07A2.74,2.74,0,0,0,881.29,104.16Z"/><path class="cls-11" d="M877.56,98.73h1.16V98.3a5.73,5.73,0,0,0-1.16-.34v.77Z"/><path class="cls-11" d="M882,103.22v-.48l-.1.11v.52A1,1,0,0,1,882,103.22Z"/><path class="cls-11" d="M881.89,103.36v-.52a7.35,7.35,0,0,1-1,.87l.38.45h.09A6,6,0,0,1,881.89,103.36Z"/><path class="cls-11" d="M881.89,104.1h0l.05-.43c0-.15,0-.3,0-.45a.76.76,0,0,0-.11.14Z"/><path class="cls-11" d="M881.38,104.16h.07l.44,0v-.74A5.92,5.92,0,0,0,881.38,104.16Z"/><path class="cls-11" d="M797,51.08v-.41h-7v1.1h6.66A4.06,4.06,0,0,1,797,51.08Z"/><rect class="cls-11" x="782.96" y="50.66" width="5.84" height="1.1"/><rect class="cls-11" x="788.8" y="50.66" width="1.16" height="1.1"/><path class="cls-11" d="M797,51.76v-.68a5.64,5.64,0,0,0-.36.69Z"/><path class="cls-11" d="M852.22,72.71V73.8a3.44,3.44,0,0,1,3.51,3.33V74.22A4.76,4.76,0,0,0,852.22,72.71Z"/><path class="cls-11" d="M848.32,64.18h-3.25v1.1h3.25a7.23,7.23,0,0,1,7.41,7V68.23A8.67,8.67,0,0,0,848.32,64.18Z"/><path class="cls-11" d="M856.89,74.14a5.12,5.12,0,0,1,5.25-5h8.6v-1.1h-8.6a6.53,6.53,0,0,0-5.25,2.59Z"/><path class="cls-11" d="M855.73,90v26h1.16V99.16h-.29v-1.1h.29V90h-1.16Z"/><path class="cls-11" d="M855.73,72.3v1.84A5.56,5.56,0,0,1,856,72.3Z"/><path class="cls-11" d="M856.89,74.14h-1.16v.08a4.27,4.27,0,0,1,1.16,2.91Z"/><path class="cls-11" d="M856.89,70.67v-7h-1.16v4.6a8,8,0,0,1,1,2.63Z"/><path class="cls-11" d="M855.73,77.13V90h1.16V77.13Z"/><path class="cls-11" d="M856.6,99.15h.29V98.06h-.29Z"/><path class="cls-11" d="M855.73,74.22v2.91h1.16A4.27,4.27,0,0,0,855.73,74.22Z"/><path class="cls-11" d="M856.75,70.86a7.78,7.78,0,0,0-1-2.63V72.3h.3A6.26,6.26,0,0,1,856.75,70.86Z"/><path class="cls-11" d="M856.89,72.3V70.67l-.14.19A7,7,0,0,1,856.89,72.3Z"/><path class="cls-11" d="M856.89,72.3H856a5.56,5.56,0,0,0-.31,1.84h1.16Z"/><path class="cls-11" d="M856,72.3h.85a7,7,0,0,0-.14-1.44A6.22,6.22,0,0,0,856,72.3Z"/><polygon class="cls-11" points="825.16 82.83 826.32 82.83 826.32 77.99 825.16 76.89 825.16 82.83"/><polygon class="cls-11" points="825.16 76.66 825.16 76.89 826.32 77.99 826.32 76.66 825.16 76.66"/><rect class="cls-11" x="782.11" y="86.64" width="1.16" height="27.71"/><rect class="cls-11" x="825.04" y="80.8" width="1.06" height="34.79"/><rect class="cls-11" x="783.02" y="72.57" width="11.28" height="1.1"/><rect class="cls-11" x="782.11" y="85.73" width="42.93" height="0.91"/><rect class="cls-11" x="775.43" y="72.57" width="6.42" height="1.1"/><rect class="cls-11" x="781.86" y="72.57" width="1.16" height="1.1"/><rect class="cls-11" x="800.95" y="72.57" width="10.08" height="1.1"/><polygon class="cls-11" points="795.93 115.45 795.93 114.35 783.27 114.35 783.27 114.74 782.11 114.74 782.11 114.35 761.93 114.35 761.93 115.09 760.77 115.09 760.77 114.35 758.01 114.35 758.71 115.45 795.93 115.45"/><rect class="cls-11" x="804.81" y="114.35" width="2.54" height="0.13"/><rect class="cls-11" x="797.1" y="114.35" width="6.56" height="0.13"/><polygon class="cls-11" points="807.35 115.45 807.35 114.49 804.81 114.49 804.81 114.74 803.65 114.74 803.65 114.49 797.1 114.49 797.1 114.35 795.93 114.35 795.93 115.45 807.35 115.45"/><rect class="cls-11" x="803.65" y="114.35" width="1.16" height="0.13"/><rect class="cls-11" x="803.65" y="114.49" width="1.16" height="0.25"/><rect class="cls-11" x="782.11" y="114.35" width="1.16" height="0.38"/></svg>