<?xml version="1.0" standalone="no"?>
<!DOCTYPE svg PUBLIC "-//W3C//DTD SVG 20010904//EN"
 "http://www.w3.org/TR/2001/REC-SVG-20010904/DTD/svg10.dtd">
<svg version="1.0" xmlns="http://www.w3.org/2000/svg"
 width="100.000000pt" height="100.000000pt" viewBox="0 0 100.000000 100.000000"
 preserveAspectRatio="xMidYMid meet">
<metadata>
Created by potrace 1.11, written by Peter Selinger 2001-2013
</metadata>
<g transform="translate(0.000000,100.000000) scale(0.100000,-0.100000)"
fill="#000000" stroke="none">
<path d="M372 994 c-6 -3 -10 -10 -6 -15 4 -7 -33 -14 -58 -10 -4 0 -12 -8
-18 -19 -6 -11 -15 -18 -20 -15 -5 3 -14 -4 -20 -15 -7 -12 -18 -19 -26 -16
-7 3 -13 2 -13 -2 4 -22 -3 -33 -15 -29 -10 4 -13 1 -9 -8 3 -8 -2 -18 -11
-21 -9 -3 -13 -10 -10 -15 3 -5 -2 -12 -10 -15 -9 -3 -16 -12 -16 -20 0 -8 -4
-14 -9 -14 -5 0 -7 -10 -3 -22 3 -13 1 -19 -5 -15 -13 8 -31 -32 -27 -60 2
-14 -1 -23 -9 -23 -8 0 -7 -4 3 -10 13 -9 13 -11 0 -20 -13 -9 -13 -10 0 -10
13 0 13 -2 1 -9 -13 -8 -13 -12 -1 -26 12 -14 12 -18 -1 -26 -12 -7 -12 -9 1
-9 12 0 12 -2 2 -9 -11 -7 -11 -9 2 -14 14 -5 14 -10 4 -26 -9 -15 -8 -22 5
-36 22 -21 21 -26 0 -18 -15 6 -16 5 -3 -9 8 -9 19 -14 23 -11 5 3 7 -1 6 -8
-4 -20 11 -61 30 -83 11 -13 12 -17 2 -11 -10 5 -12 4 -7 -3 4 -7 15 -12 24
-12 15 0 15 -2 2 -10 -10 -6 -11 -10 -2 -10 6 0 12 -6 12 -14 0 -8 7 -17 16
-20 9 -3 14 -13 11 -20 -3 -8 1 -17 9 -20 10 -4 12 -2 8 6 -4 7 -3 8 4 4 7 -4
12 -14 12 -22 0 -8 5 -14 11 -14 5 0 7 -4 4 -10 -3 -5 4 -10 15 -10 16 0 20
-4 16 -16 -3 -8 -2 -12 3 -9 5 3 13 -4 16 -16 6 -17 9 -19 16 -8 5 8 9 9 9 4
0 -6 11 -22 24 -37 14 -14 22 -29 18 -34 -4 -4 -2 -4 5 0 6 3 22 -4 35 -16 16
-15 17 -18 3 -8 -20 15 -20 15 -2 -6 15 -18 29 -22 84 -22 36 0 60 4 53 8 -9
5 -9 9 -1 14 6 4 15 4 21 1 6 -4 7 1 3 11 -4 10 -2 15 3 11 6 -3 16 3 24 13 8
10 18 16 23 13 6 -3 7 -1 3 6 -4 6 0 14 8 17 9 3 13 11 9 18 -4 6 1 5 10 -3
15 -12 17 -12 12 1 -4 9 1 18 10 22 9 3 13 11 10 16 -4 6 -3 10 2 9 4 -1 15
-1 23 0 13 1 13 2 0 11 -12 8 -11 11 8 16 15 4 21 12 18 21 -3 8 -1 11 4 8 6
-3 13 1 16 9 3 9 10 14 14 11 5 -3 7 6 6 19 -2 17 1 23 10 19 9 -3 14 2 14 16
0 11 9 25 20 31 11 6 23 22 26 35 3 14 10 23 14 20 5 -3 6 4 3 15 -3 13 0 20
8 20 11 0 11 2 -1 10 -11 7 -11 10 -2 10 8 0 10 5 6 12 -5 7 -2 9 8 6 16 -7
18 17 3 41 -6 10 -4 12 5 6 10 -6 12 -1 7 24 -4 18 -3 30 2 27 4 -3 6 6 3 19
-2 14 1 31 7 39 9 11 9 16 0 22 -8 5 -9 3 -4 -6 5 -9 4 -11 -3 -6 -7 4 -9 18
-6 33 5 20 4 24 -6 18 -9 -5 -11 -4 -6 4 5 7 9 23 11 37 2 19 0 22 -11 13 -13
-11 -18 -5 -15 15 1 4 -4 15 -11 24 -11 13 -11 15 2 7 12 -6 12 -5 3 5 -6 7
-9 19 -6 26 3 8 0 14 -7 14 -6 0 -8 -4 -5 -10 3 -5 2 -10 -3 -10 -5 0 -12 9
-15 20 -3 13 -1 18 5 13 7 -4 8 -1 4 6 -5 7 -14 10 -22 7 -8 -3 -14 0 -13 7 3
25 -1 38 -11 32 -9 -5 -14 7 -12 26 1 4 -8 5 -18 2 -14 -4 -20 0 -20 10 0 8
-13 21 -30 29 -16 7 -30 16 -30 20 0 5 -3 7 -7 7 -24 -4 -53 2 -53 12 0 5 5 7
12 3 6 -4 8 -3 5 2 -6 11 -253 17 -275 8z m-247 -302 c-3 -3 -11 0 -18 7 -9
10 -8 11 6 5 10 -3 15 -9 12 -12z"/>
</g>
</svg>
